<svg width="649" height="554" viewBox="0 0 649 554" fill="none" xmlns="http://www.w3.org/2000/svg">
<path d="M584.559 308.117C584.454 316.383 584.075 325.645 583.227 335.403L607.027 305.712L607.194 306.176C605.246 299.475 602.364 293.082 598.632 287.186L598.821 287.623L584.559 308.117Z" fill="#FFE45E"/>
<path d="M584.575 306.666L598.39 286.815C594.418 280.829 589.662 276.193 584.229 273.366C583.947 273.219 583.663 273.082 583.379 272.946C583.591 275.184 584.743 288.326 584.575 306.666Z" fill="#FFE45E"/>
<path d="M610.002 364.293C610.587 360.831 611.042 357.377 611.365 353.931L575.475 382.134L575.426 381.885C574.886 383.919 574.323 385.919 573.736 387.884L609.918 363.744L610.002 364.293Z" fill="#FFE45E"/>
<path d="M579.568 363.143L611.69 333.357L611.816 333.873C611.403 324.663 609.901 315.534 607.341 306.678L583.088 336.935C582.251 346.077 581.078 354.813 579.568 363.143Z" fill="#FFE45E"/>
<path d="M582.478 336.421L539.511 293.7L539.697 293.178C536.213 298.743 533.298 304.645 531 310.795L579.895 357.192C581.059 349.94 581.89 342.936 582.478 336.421Z" fill="#FFE45E"/>
<path d="M578.774 363.683C579.102 361.911 579.411 360.151 579.699 358.403L530.623 311.835L530.804 311.309C529.992 313.476 529.23 315.713 528.519 318.019L528.696 317.492L578.774 363.683Z" fill="#FFE45E"/>
<path d="M575.731 380.702L611.322 352.733L611.426 353.268C611.988 347.021 612.128 340.743 611.846 334.477L579.29 364.665C578.252 370.214 577.065 375.56 575.731 380.702Z" fill="#FFE45E"/>
<path d="M525.108 361.786L565.352 408.464C568.083 402.341 570.444 396.059 572.423 389.653L523.989 344.316C523.884 350.34 524.182 356.365 524.882 362.35L525.108 361.786Z" fill="#FFE45E"/>
<path d="M582.694 272.944L583.02 272.775C574.572 268.869 565.728 269.853 557.481 274.786L583.914 306.671C584.09 286.828 582.714 273.141 582.694 272.944Z" fill="#FFE45E"/>
<path d="M572.711 391.222C570.89 396.988 568.755 402.651 566.318 408.185L602.831 386.522L602.9 387.062C605.459 382.104 607.379 376.843 608.616 371.402C609.092 369.263 609.516 367.12 609.886 364.975L573.273 389.401C573.086 390.009 572.902 390.621 572.711 391.222Z" fill="#FFE45E"/>
<path d="M583.899 308.15L556.859 275.533L557.066 275.034C550.879 278.844 545.042 284.883 539.976 292.748L582.593 335.121C583.425 325.473 583.795 316.32 583.899 308.15Z" fill="#FFE45E"/>
<path d="M572.769 388.529C575.12 380.751 577.05 372.851 578.551 364.865L528.351 318.561C527.4 321.689 526.549 324.936 525.797 328.3C524.762 333.121 524.169 338.027 524.024 342.956L572.734 388.552L572.769 388.529Z" fill="#FFE45E"/>
<path d="M624.479 438.627C619.127 444.926 612.932 451.818 606.058 458.792L643.315 451.112L643.148 451.577C645.92 445.172 647.775 438.409 648.66 431.487L648.526 431.944L624.479 438.627Z" fill="#FFE45E"/>
<path d="M646.377 411.652C646.253 411.358 646.122 411.072 645.99 410.786C644.726 412.644 637.236 423.501 625.415 437.52L648.71 431.047C649.467 423.901 648.759 417.296 646.377 411.652Z" fill="#FFE45E"/>
<path d="M570.417 489.614C568.705 490.837 566.996 492.017 565.292 493.156L608.547 497.654L608.263 498.13C610.92 495.837 613.472 493.466 615.918 491.018L570.296 489.837L570.417 489.614Z" fill="#FFE45E"/>
<path d="M585.556 477.823L629.284 475.38L629.052 475.858C634.605 468.501 639.268 460.511 642.942 452.057L604.974 459.884C598.502 466.391 592.029 472.37 585.556 477.823Z" fill="#FFE45E"/>
<path d="M571.407 488.897L616.649 490.069L616.388 490.547C620.803 486.094 624.913 481.348 628.69 476.342L584.371 478.818C580.034 482.429 575.713 485.789 571.407 488.897Z" fill="#FFE45E"/>
<path d="M517.555 514.383C517.856 514.041 518.161 513.692 518.474 513.329C527.574 511.328 536.399 508.238 544.759 504.124L544.107 471.658C544.423 470.809 544.727 469.955 545.02 469.095L545.715 503.657C551.722 500.683 557.545 497.352 563.153 493.681L555.482 433.573C555.793 433.387 556.11 433.196 556.433 433L564.094 493.031L564.136 493.036C570.905 488.545 577.427 483.692 583.675 478.5L575.688 419.379C575.996 419.125 576.305 418.868 576.613 418.609L584.6 477.731C585.982 476.577 587.342 475.418 588.678 474.255L581.446 414.358C581.753 414.075 582.059 413.791 582.364 413.504L589.602 473.448C595.121 468.606 600.226 463.741 604.832 459.098L598.973 398.776L599.449 398.493C597.8 399.028 596.129 399.634 594.445 400.298C597.461 396.419 600.137 392.288 602.444 387.949L565.582 409.819C563.25 414.953 560.581 419.928 557.594 424.71C556.939 425.404 556.288 426.107 555.646 426.83L555.739 427.563C555.453 427.989 555.166 428.412 554.876 428.831L554.752 427.855C554.385 428.278 554.022 428.709 553.66 429.14C558.021 422.94 561.789 416.342 564.914 409.435L524.965 363.098C525.467 367.403 526.138 371.727 526.93 376.008C523.158 370.612 518.677 365.75 513.607 361.551L513.922 361.908L506.69 385.808C509.143 393.703 511.645 402.628 513.853 412.171L527.128 377.066C527.228 377.596 527.331 378.126 527.435 378.656L514.194 413.67C516.222 422.623 517.805 431.295 518.943 439.684L535.548 409.922C535.676 410.329 535.805 410.733 535.933 411.134L519.148 441.218C519.875 446.816 520.399 452.266 520.718 457.569L541.341 426.803C541.482 427.183 541.621 427.555 541.758 427.92L520.917 459.011L520.794 458.789C520.909 460.891 520.991 462.966 521.04 465.016L544.585 435.187C544.742 435.574 544.887 435.931 545.021 436.257L521.068 466.603C521.079 467.239 521.092 467.877 521.096 468.508C521.145 474.555 520.865 480.601 520.257 486.618L522.544 484.015C522.139 484.997 521.745 485.965 521.362 486.92L520.061 488.4C519.958 489.296 519.844 490.184 519.726 491.067C519.282 492.212 518.856 493.328 518.446 494.417C518.779 492.371 519.066 490.312 519.307 488.24L467 456.528C482.067 489.363 508.629 519.888 510.329 521.825C511.471 519.357 512.502 516.832 513.42 514.252C513.733 514.204 514.044 514.153 514.356 514.101C514.248 514.411 514.143 514.723 514.033 515.03C513.87 515.056 513.706 515.087 513.543 515.113C513.678 515.142 513.82 515.173 513.968 515.205C513.314 517.013 512.616 518.778 511.873 520.503C512.92 519.446 514.488 517.812 516.387 515.699C528.402 518.036 560.637 522.645 587.36 511.526L545.028 504.847C536.302 509.155 527.073 512.358 517.555 514.383ZM543.867 459.754L544.811 458.681L544.842 460.205L543.898 461.279L543.867 459.754Z" fill="#FFE45E"/>
<path d="M645.463 410.347L645.822 410.425C641.806 402.025 634.367 397.139 624.871 395.676L624.903 437.102C637.688 421.932 645.353 410.511 645.463 410.347Z" fill="#FFE45E"/>
<path d="M562.375 495.073C557.296 498.351 552.042 501.351 546.637 504.058L588.568 510.673L588.278 511.133C593.409 508.948 598.242 506.121 602.663 502.72C604.393 501.376 606.085 499.996 607.739 498.581L563.968 494.029C563.437 494.379 562.905 494.732 562.375 495.073Z" fill="#FFE45E"/>
<path d="M605.749 458.17C612.54 451.27 618.66 444.458 623.948 438.231L623.915 395.854L624.393 395.602C617.199 394.589 608.853 395.515 599.938 398.339L605.749 458.17Z" fill="#FFE45E"/>
<path d="M513.262 361.273C507.636 356.808 501.68 353.871 495.64 352.862C495.326 352.809 495.014 352.767 494.702 352.725C495.594 354.788 500.75 366.93 506.257 384.424L513.262 361.273Z" fill="#FFE45E"/>
<path d="M513.455 413.37L459.394 386.029L459.41 385.475C457.815 391.845 456.867 398.36 456.581 404.92L517.415 433.923C516.282 426.666 514.909 419.748 513.455 413.37Z" fill="#FFE45E"/>
<path d="M517.603 435.135L456.543 406.025L456.553 405.469C456.451 407.781 456.417 410.143 456.453 412.557L456.459 412.001L518.354 440.443C518.119 438.657 517.869 436.887 517.603 435.135Z" fill="#FFE45E"/>
<path d="M520.337 467.106L460.269 438.966C462.03 444.729 464.175 450.366 466.689 455.842L466.731 455.236L519.424 487.182C520.129 480.514 520.434 473.81 520.337 467.106Z" fill="#FFE45E"/>
<path d="M494.049 352.936L494.307 352.674C485.066 351.571 476.959 355.242 470.641 362.484L505.63 384.634C499.667 365.708 494.129 353.116 494.049 352.936Z" fill="#FFE45E"/>
<path d="M506.071 386.044L470.28 363.387L470.322 362.848C465.615 368.385 461.93 375.934 459.541 384.98L513.162 412.098C510.972 402.666 508.497 393.847 506.071 386.044Z" fill="#FFE45E"/>
<path d="M520.319 465.929C520.152 457.805 519.547 449.695 518.507 441.636L456.46 413.124C456.523 416.393 456.716 419.744 457.04 423.176C457.545 428.081 458.497 432.93 459.882 437.662L520.293 465.962L520.319 465.929Z" fill="#FFE45E"/>
<path d="M469.758 322.005L289.55 299.277C281.382 231.301 293.722 164.938 314.789 98.9425L494.998 121.67C467.805 186.415 459.823 253.24 469.758 322.005Z" fill="#F9F9F9"/>
<path d="M450.095 136.821L339.968 122.932L338.476 134.77L448.604 148.659L450.095 136.821Z" fill="#5AA9E6"/>
<path opacity="0.3" d="M463.774 167.686L314.51 148.862L313.765 154.781L463.028 173.605L463.774 167.686Z" fill="#5AA9E6"/>
<path opacity="0.3" d="M461.365 186.809L312.101 167.985L311.355 173.903L460.619 192.728L461.365 186.809Z" fill="#5AA9E6"/>
<path opacity="0.3" d="M458.955 205.932L309.692 187.107L308.946 193.026L458.21 211.851L458.955 205.932Z" fill="#5AA9E6"/>
<path opacity="0.3" d="M456.546 225.055L307.283 206.23L306.537 212.149L455.801 230.974L456.546 225.055Z" fill="#5AA9E6"/>
<path opacity="0.3" d="M454.137 244.178L304.874 225.353L304.128 231.272L453.391 250.097L454.137 244.178Z" fill="#5AA9E6"/>
<path opacity="0.3" d="M451.728 263.301L302.464 244.476L301.719 250.395L450.982 269.22L451.728 263.301Z" fill="#5AA9E6"/>
<path opacity="0.3" d="M449.319 282.424L300.055 263.599L299.309 269.518L448.573 288.343L449.319 282.424Z" fill="#5AA9E6"/>
<path d="M384.42 255.036L215.824 187.425C225.114 119.594 253.836 58.5144 290.909 1.52588e-05L459.505 67.6108C416.822 123.364 392.199 185.994 384.42 255.036Z" fill="#E6E6E6"/>
<path d="M412.231 70.901L309.2 29.5833L304.763 40.6584L407.794 81.9761L412.231 70.901Z" fill="#5AA9E6"/>
<path opacity="0.3" d="M417.659 104.225L278.014 48.224L275.795 53.7615L415.44 109.762L417.659 104.225Z" fill="#5AA9E6"/>
<path opacity="0.3" d="M410.492 122.115L270.847 66.1145L268.628 71.6521L408.273 127.653L410.492 122.115Z" fill="#5AA9E6"/>
<path opacity="0.3" d="M403.324 140.006L263.679 84.0051L261.461 89.5427L401.106 145.544L403.324 140.006Z" fill="#5AA9E6"/>
<path opacity="0.3" d="M396.157 157.897L256.512 101.896L254.294 107.433L393.939 163.434L396.157 157.897Z" fill="#5AA9E6"/>
<path opacity="0.3" d="M388.99 175.787L249.345 119.786L247.127 125.324L386.772 181.325L388.99 175.787Z" fill="#5AA9E6"/>
<path opacity="0.3" d="M381.823 193.678L242.178 137.677L239.959 143.215L379.604 199.215L381.823 193.678Z" fill="#5AA9E6"/>
<path opacity="0.3" d="M374.656 211.568L235.011 155.568L232.792 161.105L372.437 217.106L374.656 211.568Z" fill="#5AA9E6"/>
<path d="M342.726 271.319H161.091C144.491 204.899 148.438 137.513 161.091 69.3994H342.726C323.839 137.039 324.273 204.338 342.726 271.319Z" fill="#F9F9F9"/>
<path d="M300.069 90.0503H189.07V101.982H300.069V90.0503Z" fill="#5AA9E6"/>
<path opacity="0.3" d="M317.499 118.962H167.054V124.927H317.499V118.962Z" fill="#5AA9E6"/>
<path opacity="0.3" d="M317.499 138.236H167.054V144.202H317.499V138.236Z" fill="#5AA9E6"/>
<path opacity="0.3" d="M317.499 157.51H167.054V163.476H317.499V157.51Z" fill="#5AA9E6"/>
<path opacity="0.3" d="M317.499 176.784H167.054V182.75H317.499V176.784Z" fill="#5AA9E6"/>
<path opacity="0.3" d="M317.499 196.058H167.054V202.024H317.499V196.058Z" fill="#5AA9E6"/>
<path opacity="0.3" d="M317.499 215.333H167.054V221.298H317.499V215.333Z" fill="#5AA9E6"/>
<path opacity="0.3" d="M317.499 234.607H167.054V240.573H317.499V234.607Z" fill="#5AA9E6"/>
<path d="M220.294 231.009L157.719 182.336C157.093 181.247 156.191 180.342 155.104 179.713C154.016 179.083 152.783 178.752 151.527 178.752H117.753C115.859 178.752 114.042 179.505 112.703 180.845C111.363 182.186 110.61 184.003 110.61 185.899V484.139C110.61 490.287 113.051 496.183 117.397 500.531C121.742 504.878 127.635 507.32 133.78 507.32H480.475C483.518 507.32 486.531 506.721 489.342 505.556C492.153 504.391 494.707 502.683 496.858 500.531C499.01 498.378 500.717 495.823 501.881 493.01C503.045 490.198 503.645 487.183 503.645 484.139V252.08C503.645 246.491 501.426 241.132 497.477 237.181C493.527 233.229 488.171 231.009 482.585 231.009H220.294Z" fill="#3F3D56"/>
<path d="M491.854 300.173H428.968V322.195H491.854V300.173Z" fill="#5AA9E6"/>
<path d="M0 552.632C0 552.632 287.613 388.062 634.918 552.632H0Z" fill="#F9F9F9"/>
<path d="M61.5988 174.977C61.5988 174.977 64.6857 191.345 62.5249 192.581C60.7796 193.678 59.1277 194.918 57.5859 196.287L63.1422 204.008L76.4156 206.787L89.0716 195.051V183.315C89.0716 183.315 85.3674 177.447 85.9848 173.741C86.6022 170.035 61.5988 174.977 61.5988 174.977Z" fill="#FBBEBE"/>
<path opacity="0.1" d="M61.5988 174.977C61.5988 174.977 64.6857 191.345 62.5249 192.581C60.7796 193.678 59.1277 194.918 57.5859 196.287L63.1422 204.008L76.4156 206.787L89.0716 195.051V183.315C89.0716 183.315 85.3674 177.447 85.9848 173.741C86.6022 170.035 61.5988 174.977 61.5988 174.977Z" fill="black"/>
<path d="M40.2997 203.081L38.4476 204.008C38.4476 204.008 34.4347 205.552 32.5826 218.832C30.7305 232.112 26.4089 263.923 27.6437 264.85C28.8784 265.776 28.261 271.953 28.261 271.953L37.5215 223.465L40.2997 203.081Z" fill="#2F2E41"/>
<path d="M62.2503 127.706C61.9679 128.296 61.8689 128.984 61.604 129.585C60.4009 132.312 56.976 131.702 54.5058 132.734C52.4137 133.607 50.8523 136.007 50.6886 138.599C50.6191 139.7 50.7804 140.81 50.6815 141.907C50.4989 143.934 49.4541 145.72 49.0822 147.711C48.1789 152.55 50.2867 160.19 52.6666 157.579C53.4172 156.756 54.3566 156.21 55.1672 155.469C57.2726 153.544 58.3448 150.483 60.055 148.081C60.2713 147.729 60.5691 147.433 60.9232 147.22C62.1729 146.599 63.2853 148.262 64.2732 149.352C64.776 149.901 65.3899 150.337 66.0741 150.631C66.7583 150.924 67.4971 151.069 68.2414 151.054C68.9857 151.04 69.7185 150.868 70.391 150.548C71.0635 150.229 71.6603 149.77 72.1418 149.201C72.4433 148.763 72.8183 148.379 73.2503 148.068C73.7323 147.846 74.275 147.793 74.7909 147.917C77.2268 148.346 79.4211 149.653 80.9589 151.591C81.7837 152.601 82.4736 153.79 83.4623 154.573C84.451 155.356 85.8935 155.614 86.7839 154.683C88.576 155.951 89.2445 158.642 89.2492 161.092C89.254 163.543 88.7522 165.978 88.8746 168.424C88.997 170.87 89.9569 173.511 91.9054 174.408C92.2122 172.18 93.3678 170.158 95.1306 168.763C96.4577 167.774 98.0706 167.285 99.1929 165.995C101.44 163.413 100.728 159.117 100.814 155.433C100.921 150.889 102.495 146.545 102.773 142.011C102.912 139.746 102.678 137.316 101.486 135.523C100.583 134.329 99.4399 133.337 98.1293 132.614L87.5342 125.813C87.0638 125.466 86.5303 125.212 85.9634 125.068C84.4037 124.788 83.0555 126.251 81.5769 126.896C80.3437 127.334 79.029 127.493 77.727 127.364C73.6139 127.252 72.4562 128.051 69.6915 125.37C69.4764 125.153 69.2131 124.989 68.923 124.892C68.6329 124.795 68.3241 124.768 68.0215 124.813C66.3679 125.075 63.1548 125.818 62.2503 127.706Z" fill="#2F2E41"/>
<path d="M68.0814 500.805L74.5634 515.012L61.9073 519.336L55.4253 515.939L56.969 500.805H68.0814Z" fill="#FBBEBE"/>
<path d="M62.2159 512.85C62.2159 512.85 52.0294 506.673 50.1773 508.835C48.3252 510.997 33.5084 526.748 33.5084 526.748C33.5084 526.748 10.6658 539.102 28.2608 540.955C45.8557 542.808 74.5633 530.145 74.5633 530.145C74.5633 530.145 76.1067 513.468 74.8719 513.159C73.6372 512.85 68.3896 515.938 65.9201 515.012C64.5563 514.54 63.298 513.805 62.2159 512.85Z" fill="#2F2E41"/>
<path d="M84.7497 515.939V528.601L68.0811 524.895L71.785 511.923L84.7497 515.939Z" fill="#FBBEBE"/>
<path d="M67.7728 520.262C67.7728 520.262 84.7503 517.483 86.2938 525.821C87.8372 534.16 91.85 546.514 87.8372 549.602C83.8243 552.691 63.1425 556.705 62.8338 551.455C62.5251 546.205 64.9946 536.013 64.9946 536.013C64.9946 536.013 66.538 527.983 65.612 525.821C64.6859 523.659 67.7728 520.262 67.7728 520.262Z" fill="#2F2E41"/>
<path d="M33.8624 311.714C33.8624 311.714 19.9265 400.123 31.3478 443.36C42.7691 486.598 50.7948 512.232 50.7948 512.232C50.7948 512.232 70.5506 506.673 70.5506 502.967C70.5506 499.261 62.8335 444.287 60.9814 439.037C59.1293 433.786 56.0425 431.933 58.8206 427.609C61.5987 423.286 66.229 395.49 66.229 395.49C66.229 395.49 76.4155 441.507 77.0329 442.743C77.6503 443.978 70.5506 514.703 70.5506 514.703C70.5506 514.703 90.9269 529.498 92.1584 518.409C92.4671 515.63 106.049 417.109 106.049 415.874C106.049 414.638 111.605 320.132 102.654 315.5C93.7018 310.867 33.8624 311.714 33.8624 311.714Z" fill="#2F2E41"/>
<path d="M73.6374 181.153C85.2301 181.153 94.6279 171.751 94.6279 160.152C94.6279 148.553 85.2301 139.151 73.6374 139.151C62.0447 139.151 52.647 148.553 52.647 160.152C52.647 171.751 62.0447 181.153 73.6374 181.153Z" fill="#FBBEBE"/>
<path d="M69.0074 201.846V199.684L62.8338 189.492C62.8338 189.492 56.6601 190.11 55.7341 192.889C54.808 195.669 44.3128 217.906 44.3128 217.906L33.2002 317.662C33.2002 317.662 63.7598 325.074 68.3901 319.824C73.0203 314.573 90.6152 200.302 90.6152 200.302L93.0847 186.404C93.0847 186.404 88.8444 180.227 87.8777 181.153C86.911 182.08 70.8595 199.993 70.8595 199.993L70.5508 202.772L69.0074 201.846Z" fill="#5AA9E6"/>
<path d="M62.679 187.485C62.679 187.485 56.9683 186.095 55.1162 189.492C53.2641 192.889 53.2641 194.125 51.412 195.36C49.5599 196.596 38.756 202.155 38.1386 204.317C37.5213 206.478 24.2479 274.733 24.2479 274.733C24.2479 274.733 17.7656 295.116 20.8524 309.014C23.9392 322.912 21.7784 325.692 28.2608 326.927C34.7431 328.162 35.6692 328.162 35.6692 326.309C35.6692 324.456 44.0036 261.761 49.8686 257.437C55.7336 253.114 54.1902 205.861 54.1902 205.861C54.1902 205.861 62.5246 195.669 62.5246 194.125C62.5246 192.581 63.9137 187.369 62.679 187.485Z" fill="#2F2E41"/>
<path d="M80.12 198.757C80.9812 198.901 92.776 183.624 93.702 184.242C94.6281 184.86 99.2583 192.889 99.8757 192.889C100.493 192.889 126.731 199.375 128.892 211.42C131.053 223.465 113.766 261.761 113.766 261.761C113.766 261.761 106.358 283.689 107.901 293.263C108.949 300.554 108.74 307.971 107.284 315.191C106.667 317.662 104.506 320.441 105.123 321.677C105.741 322.912 91.5413 320.132 85.6763 323.53C79.8113 326.927 53.5732 329.398 55.1166 325.692C56.6601 321.985 57.5862 307.47 61.9077 292.028C66.2292 276.586 77.3418 240.142 75.4897 237.672C73.6376 235.201 78.2679 198.449 80.12 198.757Z" fill="#2F2E41"/>
<path d="M125.187 207.714L129.2 211.42C129.2 211.42 133.831 219.45 133.213 223.156C132.596 226.862 146.178 282.762 140.622 284.616C135.065 286.469 121.792 295.734 120.248 298.205C118.705 300.675 115.001 304.999 112.531 306.234C110.062 307.47 107.593 309.632 106.049 308.396C104.506 307.161 101.11 281.836 103.58 280.909C106.049 279.983 108.519 277.203 110.988 277.203C113.457 277.203 115.001 274.733 115.001 272.571C115.001 270.409 113.149 257.437 113.149 257.437L109.136 226.862L125.187 207.714Z" fill="#2F2E41"/>
<path d="M65.9532 130.78C65.7035 131.225 65.6159 131.746 65.3817 132.2C64.3179 134.261 61.2897 133.8 59.1055 134.58C58.1824 134.926 57.3757 135.525 56.7785 136.31C56.1813 137.094 55.818 138.032 55.7303 139.014C55.6689 139.846 55.8115 140.685 55.7241 141.515C55.5626 143.047 54.6387 144.397 54.31 145.903C53.5112 149.56 55.3749 155.336 57.4793 153.362C58.1429 152.74 58.9735 152.327 59.6903 151.767C61.5519 150.312 62.5 147.998 64.0121 146.182C64.2131 145.907 64.4762 145.684 64.7798 145.531C65.8848 145.061 66.8684 146.319 67.7418 147.143C68.7083 147.992 69.9563 148.451 71.2425 148.43C72.5287 148.409 73.761 147.909 74.6993 147.029C74.9747 146.689 75.3062 146.4 75.6795 146.172C76.1131 146.004 76.586 145.964 77.0416 146.058C79.1199 146.344 81.0412 147.323 82.4954 148.836C83.1514 149.663 83.8934 150.419 84.7089 151.089C85.5831 151.681 86.8586 151.876 87.6459 151.173C89.2305 152.131 89.8216 154.165 89.8258 156.018C89.83 157.87 89.3863 159.711 89.4945 161.56C89.6027 163.41 90.4515 165.406 92.1744 166.084C92.3327 165.215 92.6674 164.388 93.1579 163.654C93.6484 162.92 94.2843 162.295 95.0261 161.816C96.1995 161.069 97.6257 160.699 98.618 159.724C100.605 157.772 99.9752 154.525 100.052 151.74C100.146 148.305 101.537 145.021 101.783 141.594C101.906 139.881 101.699 138.044 100.645 136.689C99.8155 135.762 98.8058 135.014 97.6776 134.49L88.3093 129.349C87.8827 129.081 87.4127 128.891 86.9204 128.785C85.5413 128.573 84.3492 129.68 83.0419 130.167C81.9397 130.499 80.7846 130.619 79.6378 130.52C76.0009 130.436 74.9773 131.04 72.5327 129.013C72.3291 128.845 72.0927 128.72 71.8386 128.648C71.5844 128.575 71.318 128.556 71.0561 128.592C69.594 128.79 66.753 129.352 65.9532 130.78Z" fill="#2F2E41"/>
</svg>
