<svg width="294" height="154" viewBox="0 0 294 154" fill="none" xmlns="http://www.w3.org/2000/svg">
<g clip-path="url(#clip0)">
<path d="M293.376 112.254C291.836 122.018 287.064 131.496 279.19 137.494C271.441 143.401 261.513 145.5 251.928 147.304C240.433 149.471 228.906 151.451 217.348 153.245C215.71 153.506 214.07 153.757 212.429 154H145.108C145.04 153.909 144.968 153.815 144.9 153.721C144.79 153.562 144.681 153.404 144.575 153.245C144.514 153.155 144.454 153.06 144.393 152.966H186.62C187.818 152.965 188.967 152.49 189.815 151.645C190.663 150.8 191.14 149.654 191.142 148.459V92.2337C191.414 91.3807 191.668 90.5238 191.899 89.6557C192.975 85.6132 193.676 81.4802 193.991 77.3093C194.218 74.4029 194.286 71.4965 194.237 68.5863C194.097 60.5881 193.049 52.5899 191.91 44.6483C191.827 44.0632 191.74 43.4744 191.656 42.8894C190.854 37.371 190.124 31.3658 192.912 26.5306C196.102 20.9971 203.182 18.6909 209.557 19.2571C221.026 20.28 230.686 29.0406 235.707 39.3791C240.724 49.7137 241.848 61.4676 242.306 72.9421C242.548 79.0267 242.522 85.383 241.67 91.4864C244.546 84.9262 247.424 78.3661 250.305 71.806C251.841 68.307 253.457 64.6948 256.302 62.1357C262.25 56.7796 272.088 57.8591 278.441 62.7358C284.79 67.6163 288.271 75.3276 290.587 82.9786C293.455 92.4413 294.92 102.489 293.376 112.254Z" fill="#E6E6E6"/>
<path d="M268.004 59.217C272.164 66.5654 274.072 74.9916 274.026 83.4002C273.962 91.7371 272.113 99.9641 268.604 107.531C265.429 114.363 261.007 120.545 255.562 125.761C250.189 130.965 243.813 135.028 236.821 137.704C228.707 140.737 219.931 141.569 211.39 140.114C210.203 139.911 209.025 139.664 207.856 139.375C207.147 139.2 206.844 140.292 207.554 140.467C216.442 142.664 225.764 142.397 234.511 139.693C241.796 137.355 248.518 133.54 254.255 128.488C260.064 123.422 264.868 117.313 268.416 110.479C272.3 102.997 274.565 94.7843 275.067 86.3735C275.562 77.8387 274.128 69.1518 270.428 61.4097C269.98 60.4715 269.498 59.5501 268.985 58.6455C268.906 58.5213 268.782 58.4324 268.639 58.3976C268.496 58.3628 268.345 58.3848 268.218 58.4589C268.091 58.533 267.997 58.6535 267.958 58.795C267.918 58.9364 267.935 59.0877 268.005 59.217H268.004Z" fill="white"/>
<path d="M207.763 19.1073C212.375 27.5876 215.968 36.5805 218.47 45.8999C223.478 64.5653 224.232 84.1125 220.677 103.107C218.902 112.597 216.008 121.844 212.054 130.655C208.112 139.392 202.436 148.597 192.741 151.656C191.647 152 190.525 152.25 189.389 152.404C188.668 152.503 188.975 153.594 189.69 153.496C199.719 152.123 206.688 143.811 211.058 135.339C215.58 126.573 218.8 117.053 220.942 107.442C225.185 88.2646 225.033 68.3788 220.495 49.2685C218.241 39.7484 214.872 30.5259 210.457 21.7912C209.902 20.6973 209.331 19.6122 208.743 18.5358C208.394 17.8955 207.413 18.4664 207.763 19.1073V19.1073Z" fill="white"/>
<path d="M160.296 17.4604H92.3394C90.9601 17.4622 89.6378 18.0095 88.6625 18.9825C87.6872 19.9554 87.1385 21.2744 87.1367 22.6504V56.6173H97.5951C98.3601 56.6152 99.1129 56.8079 99.7823 57.1772C100.452 57.5464 101.016 58.0799 101.42 58.7273L105.045 64.4834L108.511 69.9829L109.162 71.0171L113.127 77.3092L113.173 77.3809H165.499V22.6503C165.497 21.2744 164.948 19.9554 163.973 18.9825C162.998 18.0095 161.675 17.4622 160.296 17.4604Z" fill="#BCBCBC"/>
<path d="M133.359 27.8441H99.6875C98.7948 27.8441 97.9387 28.1978 97.3076 28.8275C96.6764 29.4571 96.3218 30.3111 96.3218 31.2016C96.3218 32.092 96.6764 32.946 97.3076 33.5756C97.9387 34.2053 98.7948 34.559 99.6875 34.559H133.359C134.252 34.559 135.108 34.2053 135.739 33.5756C136.37 32.946 136.725 32.092 136.725 31.2016C136.725 30.3111 136.37 29.4571 135.739 28.8275C135.108 28.1978 134.252 27.8441 133.359 27.8441Z" fill="white"/>
<path d="M152.032 44.3312H99.9939C99.0195 44.3312 98.0849 44.7173 97.3959 45.4047C96.7069 46.092 96.3198 47.0242 96.3198 47.9962C96.3198 48.9683 96.7069 49.9005 97.3959 50.5878C98.0849 51.2752 99.0195 51.6613 99.9939 51.6613H152.032C153.007 51.6613 153.941 51.2752 154.63 50.5878C155.319 49.9005 155.706 48.9683 155.706 47.9962C155.706 47.0242 155.319 46.092 154.63 45.4047C153.941 44.7173 153.007 44.3312 152.032 44.3312Z" fill="white"/>
<path d="M155.354 59.2671C155.059 58.6369 154.589 58.1038 154.001 57.7302C153.413 57.3565 152.73 57.1577 152.032 57.1571H99.9939C99.9145 57.1571 99.8387 57.1609 99.7593 57.1646C100.438 57.5347 101.01 58.0729 101.42 58.7273L105.045 64.4835H152.032C152.65 64.4836 153.258 64.3281 153.8 64.0314C154.341 63.7346 154.799 63.3063 155.13 62.786C155.462 62.2657 155.656 61.6704 155.695 61.0552C155.734 60.4401 155.617 59.825 155.354 59.2671Z" fill="white"/>
<path d="M155.668 73.1535C155.549 72.2759 155.114 71.4712 154.446 70.8884C153.777 70.3055 152.92 69.9838 152.032 69.9829H108.511L109.162 71.0171L113.127 77.3093H152.032C152.797 77.3109 153.542 77.0718 154.162 76.6261C154.639 76.2875 155.027 75.8402 155.295 75.3215C155.563 74.8028 155.703 74.2277 155.702 73.6442C155.703 73.48 155.691 73.3161 155.668 73.1535Z" fill="white"/>
<path d="M197.207 46.713L191.91 44.6483L165.499 34.3665L133.9 22.0653C132.614 21.5674 131.183 21.5985 129.919 22.1518C128.656 22.7051 127.664 23.7355 127.161 25.017L126.057 27.8441L123.427 34.559L119.605 44.3312L116.737 51.6614L114.588 57.1571L111.72 64.4834L109.567 69.9829L109.506 70.1414L109.162 71.0171L113.128 77.3092L113.173 77.381H186.62C187.294 77.3803 187.96 77.5306 188.568 77.8206C189.177 78.1107 189.712 78.5331 190.135 79.0568L190.445 78.2717L194.237 68.5863L200.162 53.4392C200.662 52.1561 200.632 50.7276 200.078 49.4667C199.524 48.2059 198.492 47.2156 197.207 46.713Z" fill="#FF6392"/>
<path d="M168.329 46.6148L165.499 45.5126L136.961 34.4042C136.129 34.0829 135.203 34.1031 134.386 34.4602C133.569 34.8173 132.926 35.4824 132.599 36.3103C132.276 37.1409 132.296 38.065 132.655 38.8806C133.014 39.6962 133.682 40.3368 134.513 40.6624L143.939 44.3312L155.596 48.8682L165.499 52.7257L165.881 52.8729C166.712 53.195 167.638 53.1747 168.454 52.8166C169.271 52.4585 169.912 51.7918 170.236 50.9628C170.56 50.1339 170.542 49.2105 170.184 48.3953C169.826 47.5801 169.159 46.9397 168.329 46.6148Z" fill="white"/>
<path d="M179.71 68.7486L165.499 63.2152L155.354 59.267L149.936 57.1571L135.822 51.6614L131.236 49.876C130.381 49.5428 129.431 49.5413 128.575 49.8717C127.718 50.2022 127.017 50.8407 126.609 51.6614C126.563 51.7557 126.518 51.8539 126.48 51.9558C126.305 52.4039 126.219 52.882 126.229 53.363C126.239 53.844 126.344 54.3183 126.537 54.7589C126.731 55.1995 127.01 55.5977 127.358 55.9308C127.706 56.2639 128.116 56.5254 128.565 56.7003L129.738 57.1571L148.551 64.4834L165.499 71.0813L177.039 75.5767C177.464 75.7421 177.915 75.8266 178.371 75.8259C179.228 75.8274 180.058 75.5299 180.719 74.985C181.379 74.4401 181.827 73.682 181.986 72.842C182.145 72.002 182.005 71.133 181.589 70.3855C181.173 69.6379 180.509 69.0589 179.71 68.7486H179.71Z" fill="white"/>
<path d="M165.499 76.9809L164.587 76.6261L155.668 73.1535L147.522 69.9829L133.393 64.4834L126.56 61.8224C126.11 61.6469 125.63 61.5616 125.148 61.5713C124.665 61.581 124.189 61.6855 123.747 61.8788C123.305 62.0722 122.905 62.3506 122.571 62.6981C122.237 63.0457 121.974 63.4555 121.799 63.9042C121.624 64.3529 121.539 64.8317 121.549 65.3132C121.56 65.7947 121.665 66.2694 121.859 66.7102C122.054 67.1511 122.333 67.5493 122.682 67.8822C123.031 68.2152 123.442 68.4762 123.892 68.6505L127.313 69.9829L144.377 76.6261L146.133 77.3093L146.315 77.381H166.524L165.499 76.9809Z" fill="white"/>
<path d="M130.979 77.3093L129.224 76.6261L121.887 73.7688C121.374 73.5685 120.823 73.4859 120.274 73.527C119.725 73.5682 119.193 73.732 118.716 74.0065C118.239 74.2809 117.83 74.6588 117.52 75.1123C117.209 75.5658 117.005 76.0832 116.923 76.6261C116.886 76.8519 116.872 77.0807 116.881 77.3093C116.88 77.3332 116.881 77.3572 116.885 77.381H131.165L130.979 77.3093Z" fill="white"/>
<path d="M146.133 77.3092L144.377 76.626H116.922C116.886 76.8518 116.872 77.0806 116.881 77.3092H113.127L113.173 77.3809H146.315L146.133 77.3092ZM146.133 77.3092H113.127L113.173 77.3809H146.315L146.133 77.3092ZM146.133 77.3092H113.127L113.173 77.3809H146.315L146.133 77.3092ZM146.315 77.3809L146.133 77.3092H113.127L113.173 77.3809H146.315ZM80.0949 152.966C78.8972 152.964 77.7492 152.489 76.9023 151.644C76.0555 150.799 75.5789 149.654 75.5771 148.459V61.1278C75.5781 59.9325 76.0543 58.7864 76.9012 57.9408C77.7481 57.0952 78.8967 56.6192 80.0949 56.6172H87.1364V55.8623H80.0949C78.6961 55.8649 77.3555 56.4206 76.3668 57.4077C75.378 58.3947 74.8219 59.7324 74.8203 61.1278V148.459C74.8215 149.468 75.1135 150.456 75.6616 151.305C76.2097 152.153 76.9907 152.827 77.9116 153.245H144.574C144.514 153.154 144.453 153.06 144.393 152.966H80.0949ZM190.445 78.2717C189.954 77.7515 189.361 77.3372 188.703 77.0542C188.045 76.7712 187.336 76.6254 186.62 76.626H113.593L109.506 70.1413L109.408 69.9828L105.942 64.4833L102.06 58.3233C101.584 57.5708 100.925 56.9506 100.144 56.5203C99.3638 56.09 98.4867 55.8637 97.5949 55.8623H80.0949C78.6961 55.8649 77.3555 56.4206 76.3668 57.4077C75.378 58.3947 74.8219 59.7324 74.8203 61.1278V148.459C74.8215 149.468 75.1135 150.456 75.6616 151.305C76.2097 152.153 76.9907 152.827 77.9116 153.245C78.5963 153.559 79.3412 153.722 80.0949 153.721H186.62C187.374 153.722 188.121 153.559 188.807 153.245C189.728 152.827 190.509 152.153 191.057 151.305C191.605 150.456 191.897 149.468 191.898 148.459V81.8914C191.899 80.5432 191.378 79.2466 190.445 78.2717ZM191.141 148.459C191.139 149.654 190.662 150.8 189.814 151.645C188.967 152.49 187.818 152.965 186.62 152.966H80.0949C78.8972 152.964 77.7492 152.489 76.9023 151.644C76.0555 150.799 75.5789 149.654 75.5771 148.459V61.1278C75.5781 59.9325 76.0543 58.7864 76.9012 57.9408C77.7481 57.0952 78.8967 56.6192 80.0949 56.6172H97.5949C98.3598 56.6151 99.1126 56.8078 99.782 57.1771C100.451 57.5463 101.015 58.0798 101.42 58.7272L105.045 64.4833L108.511 69.9828L109.162 71.017L113.127 77.3091L113.173 77.3809H186.62C187.818 77.3819 188.968 77.8574 189.816 78.7031C190.663 79.5488 191.14 80.6954 191.141 81.8914V148.459ZM146.133 77.3092H113.127L113.173 77.3809H146.315L146.133 77.3092ZM146.133 77.3092H113.127L113.173 77.3809H146.315L146.133 77.3092ZM146.133 77.3092H113.127L113.173 77.3809H146.315L146.133 77.3092ZM146.133 77.3092L144.377 76.626H113.593L109.506 70.1413L109.162 71.017L113.127 77.3092L113.173 77.3809H146.315L146.133 77.3092Z" fill="#3F3D56"/>
<path d="M59.3781 108.619L57.2108 113.14L38.7017 106.952L41.9001 100.28L59.3781 108.619Z" fill="#FFB8B8"/>
<path d="M54.1668 116.171L58.5478 107.033L64.0501 109.659L57.2386 123.865L56.8179 123.664C55.4702 123.021 54.4337 121.87 53.9366 120.465C53.4394 119.06 53.5222 117.515 54.1668 116.171Z" fill="#2F2E41"/>
<path d="M63.7412 148.986L58.7213 148.817L58.5098 129.324L64.3947 129.67L63.7412 148.986Z" fill="#FFB8B8"/>
<path d="M54.7175 147.25L64.8652 147.592L64.6595 153.672L48.8821 153.141L48.8979 152.676C48.9483 151.187 49.5897 149.778 50.6811 148.761C51.7725 147.743 53.2244 147.2 54.7175 147.25Z" fill="#2F2E41"/>
<path d="M71.8253 67.405C71.8253 67.405 56.4613 63.5223 49.4963 69.2442L45.604 80.4836L30.0352 102.554L52.5691 116.041L56.6662 105.823L46.8332 100.919L58.7147 90.7012L56.6662 144.65L64.4506 145.876C64.4506 145.876 81.6583 79.2575 71.8253 67.405Z" fill="#2F2E41"/>
<path d="M48.5161 70.9064L48.7034 70.5744C50.6774 67.0736 50.3575 61.3729 49.7416 57.2072C49.2258 53.7181 49.2413 47.5691 49.3451 43.0251C49.3708 41.4913 49.9191 40.012 50.8999 38.8305C51.8807 37.649 53.2355 36.8359 54.7413 36.5249C59.4153 35.5546 65.1533 35.3491 68.1577 35.3128L68.1602 35.5171L68.1577 35.3128C68.974 35.3095 69.759 35.6256 70.3444 36.1931C70.9298 36.7606 71.2689 37.5345 71.2889 38.3485C71.3803 43.2418 71.3519 52.1651 70.1346 56.9526C68.3279 64.0582 71.153 68.8869 71.1819 68.9348L71.3523 69.2189L48.5161 70.9064Z" fill="#FF6392"/>
<path d="M40.6125 90.503C41.1127 90.264 41.5542 89.9186 41.9061 89.491C42.2579 89.0635 42.5115 88.5641 42.649 88.0282C42.7864 87.4923 42.8044 86.9329 42.7017 86.3893C42.599 85.8457 42.378 85.3311 42.0544 84.8819L50.7252 47.5828H44.1699L36.5174 84.1468C35.797 84.7391 35.3194 85.5746 35.1752 86.4947C35.031 87.4149 35.2301 88.3559 35.7349 89.1393C36.2397 89.9228 37.015 90.4944 37.914 90.7457C38.813 90.997 39.7731 90.9106 40.6125 90.503Z" fill="#FFB8B8"/>
<path d="M93.3351 53.7877L78.865 40.1332L74.9541 45.595L84.7312 54.1778L71.9091 64.3351C71.8165 64.3289 71.7243 64.3211 71.6299 64.3211C70.8409 64.3203 70.0684 64.5463 69.4047 64.9721C68.7411 65.3978 68.2145 66.0053 67.8879 66.7218C67.5613 67.4383 67.4485 68.2335 67.5631 69.0122C67.6776 69.791 68.0147 70.5203 68.5339 71.113C69.0531 71.7057 69.7325 72.1366 70.4907 72.3541C71.249 72.5717 72.0541 72.5668 72.8096 72.3399C73.5652 72.113 74.2392 71.6738 74.751 71.0748C75.2629 70.4758 75.5909 69.7424 75.6958 68.9623L75.7363 69.0026L93.3351 53.7877Z" fill="#FFB8B8"/>
<path d="M53.821 37.0044C53.821 37.0044 44.7849 35.526 43.9655 42.474C43.146 49.422 42.7363 49.422 42.7363 49.422C42.7363 49.422 49.2916 48.1959 50.9305 49.8307C52.5693 51.4655 53.821 37.0044 53.821 37.0044Z" fill="#FF6392"/>
<path d="M67.3184 35.9347C67.3184 35.9347 74.6931 34.7086 77.9708 37.9782C81.2484 41.2478 82.8872 42.0653 82.8872 42.0653C82.8872 42.0653 75.5125 46.1523 78.3805 49.8307C78.3805 49.8307 70.596 46.1523 69.3669 47.3784C68.1378 48.6045 67.3184 35.9347 67.3184 35.9347Z" fill="#FF6392"/>
<path d="M60.8506 12.2062C58.5243 10.3529 57.9131 6.77605 59.2628 4.12898C60.6125 1.48192 63.6639 -0.112862 66.6386 0.00623512C69.6133 0.125333 72.4163 1.82899 74.1397 4.25062C76.5605 7.65237 77.0685 12.3803 80.2875 15.0435C83.195 17.4489 87.36 17.38 91.1324 17.1886C92.404 17.1241 93.7167 17.0494 94.8578 16.4858C95.9988 15.9221 96.9311 14.7335 96.784 13.4718C97.7317 14.9684 97.1819 17.0667 95.9104 18.3015C94.639 19.5363 92.8285 20.0536 91.0661 20.2596C87.9568 20.5856 84.8159 20.0981 81.9529 18.845C79.0899 17.5919 76.6035 15.6165 74.7386 13.1133C73.426 11.3071 72.413 9.20374 70.612 7.88127C68.8109 6.55881 65.8078 6.46675 64.7021 8.40593C64.1553 9.36503 64.2089 10.5681 63.7061 11.5508C63.2032 12.5336 61.5701 13.0635 61.0859 12.0714" fill="#2F2E41"/>
<path d="M60.4949 31.9157C66.7641 31.9157 71.8462 26.846 71.8462 20.5921C71.8462 14.3383 66.7641 9.26855 60.4949 9.26855C54.2257 9.26855 49.1436 14.3383 49.1436 20.5921C49.1436 26.846 54.2257 31.9157 60.4949 31.9157Z" fill="#2F2E41"/>
<path d="M60.4262 32.8022C65.5587 32.8022 69.7195 28.6516 69.7195 23.5315C69.7195 18.4115 65.5587 14.2609 60.4262 14.2609C55.2936 14.2609 51.1328 18.4115 51.1328 23.5315C51.1328 28.6516 55.2936 32.8022 60.4262 32.8022Z" fill="#FFB8B8"/>
<path d="M51.9521 16.7228C53.2152 16.9983 52.8019 19.1119 53.7999 19.9317C54.7002 20.6713 55.9968 19.9107 57.1299 19.6354C58.5604 19.2878 60.0578 19.797 61.3786 20.4462C62.6994 21.0953 63.9729 21.9009 65.4138 22.2034C66.8546 22.5058 68.5628 22.1649 69.3705 20.9369C70.1428 19.7626 69.8585 18.1792 69.2543 16.9107C68.5031 15.3335 67.3241 13.9977 65.8509 13.0546C64.3777 12.1116 62.6692 11.5989 60.9189 11.5747C59.1686 11.5505 57.4465 12.0157 55.9477 12.9177C54.4489 13.8197 53.2332 15.1224 52.4384 16.6782" fill="#2F2E41"/>
<path d="M270.919 153.623C270.918 153.723 270.878 153.818 270.808 153.889C270.737 153.96 270.641 154 270.54 154H0.378378C0.278026 154 0.181784 153.96 0.110824 153.889C0.0398644 153.819 0 153.723 0 153.623C0 153.522 0.0398644 153.426 0.110824 153.356C0.181784 153.285 0.278026 153.245 0.378378 153.245H270.54C270.641 153.245 270.737 153.285 270.808 153.356C270.878 153.427 270.918 153.523 270.919 153.623Z" fill="#3F3D56"/>
</g>
<defs>
<clipPath id="clip0">
<rect width="294" height="154" fill="white"/>
</clipPath>
</defs>
</svg>
