<svg 
		width="237"
    height="162"
    viewBox="0 0 237 162"
    fill="none"
    xmlns="http://www.w3.org/2000/svg"
  >
    <g clip-path="url(#clip0)" filter="url(#filter0_d)">
      <path
        d="M230.771 2.88865e-09H75.8173C75.2271 0.000512685 74.6612 0.234097 74.2438 0.649475C73.8265 1.06485 73.5918 1.62808 73.5913 2.2155V57.9612H111.092C112.107 57.9624 113.08 58.3643 113.798 59.0788C114.516 59.7932 114.92 60.7619 114.921 61.7723V108.935H230.771C231.093 108.935 231.411 108.866 231.703 108.732C231.996 108.597 232.255 108.402 232.464 108.158C232.482 108.139 232.498 108.119 232.512 108.097C232.645 107.935 232.753 107.755 232.832 107.561C232.944 107.295 233.001 107.009 233 106.72V2.2155C232.999 1.62767 232.764 1.06414 232.346 0.648719C231.928 0.233299 231.362 -2.99768e-05 230.771 2.88865e-09Z"
        fill="#DBDBDB"
      />
      <path
        d="M232.681 8.88007H73.9082V9.51342H232.681V8.88007Z"
        fill="#DDDDDD"
      />
      <path
        d="M79.3173 6.65069C80.3716 6.65069 81.2264 5.80001 81.2264 4.75064C81.2264 3.70127 80.3716 2.85059 79.3173 2.85059C78.2629 2.85059 77.4082 3.70127 77.4082 4.75064C77.4082 5.80001 78.2629 6.65069 79.3173 6.65069Z"
        fill="#DDDDDD"
      />
      <path
        d="M84.8056 6.65069C85.8599 6.65069 86.7147 5.80001 86.7147 4.75064C86.7147 3.70127 85.8599 2.85059 84.8056 2.85059C83.7512 2.85059 82.8965 3.70127 82.8965 4.75064C82.8965 5.80001 83.7512 6.65069 84.8056 6.65069Z"
        fill="#DDDDDD"
      />
      <path
        d="M90.2943 6.65069C91.3487 6.65069 92.2034 5.80001 92.2034 4.75064C92.2034 3.70127 91.3487 2.85059 90.2943 2.85059C89.24 2.85059 88.3853 3.70127 88.3853 4.75064C88.3853 5.80001 89.24 6.65069 90.2943 6.65069Z"
        fill="#DDDDDD"
      />
      <path
        d="M193.118 22.7089H113.471C112.591 22.7089 111.747 23.0568 111.124 23.6763C110.502 24.2957 110.152 25.1358 110.152 26.0118C110.152 26.8878 110.502 27.7279 111.124 28.3473C111.747 28.9667 112.591 29.3147 113.471 29.3147H193.118C193.998 29.3147 194.842 28.9667 195.465 28.3473C196.087 27.7279 196.437 26.8878 196.437 26.0118C196.437 25.1358 196.087 24.2957 195.465 23.6763C194.842 23.0568 193.998 22.7089 193.118 22.7089ZM193.118 28.8066H113.471C112.726 28.8066 112.012 28.5121 111.485 27.988C110.959 27.4639 110.663 26.753 110.663 26.0118C110.663 25.2706 110.959 24.5597 111.485 24.0356C112.012 23.5115 112.726 23.217 113.471 23.217H193.118C193.863 23.217 194.577 23.5115 195.104 24.0356C195.63 24.5597 195.926 25.2706 195.926 26.0118C195.926 26.753 195.63 27.4639 195.104 27.988C194.577 28.5121 193.863 28.8066 193.118 28.8066Z"
        fill="#DDDDDD"
      />
      <path
        d="M217.489 49.023H137.842C136.962 49.023 136.118 49.371 135.495 49.9904C134.873 50.6098 134.523 51.4499 134.523 52.3259C134.523 53.2019 134.873 54.042 135.495 54.6614C136.118 55.2809 136.962 55.6289 137.842 55.6289H217.489C218.369 55.6289 219.213 55.2809 219.836 54.6614C220.458 54.042 220.808 53.2019 220.808 52.3259C220.808 51.4499 220.458 50.6098 219.836 49.9904C219.213 49.371 218.369 49.023 217.489 49.023Z"
        fill="white"
      />
      <path
        d="M217.489 61.2184H137.842C136.962 61.2184 136.118 61.5664 135.495 62.1858C134.873 62.8052 134.523 63.6453 134.523 64.5213C134.523 65.3973 134.873 66.2374 135.495 66.8568C136.118 67.4763 136.962 67.8242 137.842 67.8242H217.489C218.369 67.8242 219.213 67.4763 219.836 66.8568C220.458 66.2374 220.808 65.3973 220.808 64.5213C220.808 63.6453 220.458 62.8052 219.836 62.1858C219.213 61.5664 218.369 61.2184 217.489 61.2184Z"
        fill="white"
      />
      <path
        d="M217.489 73.4138H137.842C136.962 73.4138 136.118 73.7618 135.495 74.3812C134.873 75.0006 134.523 75.8408 134.523 76.7167C134.523 77.5927 134.873 78.4328 135.495 79.0523C136.118 79.6717 136.962 80.0197 137.842 80.0197H217.489C218.369 80.0197 219.213 79.6717 219.836 79.0523C220.458 78.4328 220.808 77.5927 220.808 76.7167C220.808 75.8408 220.458 75.0006 219.836 74.3812C219.213 73.7618 218.369 73.4138 217.489 73.4138Z"
        fill="white"
      />
      <path
        d="M124.971 43.5605H88.7164C87.9388 43.5614 87.1932 43.8693 86.6434 44.4165C86.0935 44.9638 85.7841 45.7058 85.7832 46.4798V57.9612H86.2938V46.4798C86.2947 45.8406 86.5503 45.2279 87.0044 44.7759C87.4586 44.3239 88.0742 44.0696 88.7164 44.0686H124.971C125.613 44.0692 126.229 44.3234 126.683 44.7754C127.138 45.2275 127.393 45.8405 127.394 46.4798V82.5629C127.393 83.2022 127.138 83.8152 126.683 84.2672C126.229 84.7193 125.613 84.9735 124.971 84.974H114.921V85.4822H124.971C125.749 85.4817 126.495 85.174 127.045 84.6266C127.595 84.0792 127.904 83.337 127.904 82.5629V46.4798C127.904 45.7057 127.595 44.9634 127.045 44.4161C126.495 43.8687 125.749 43.561 124.971 43.5605Z"
        fill="#DDDDDD"
      />
      <path
        d="M30.9632 80.6847C30.835 80.6898 25.37 80.3127 25.2305 80.308L25.7214 75.4306L28.8341 75.3373L34.7821 64.3728C33.9571 62.8072 34.9723 60.7298 36.7223 60.4096C40.2487 59.6119 41.4601 65.1337 37.9229 65.8684L33.0031 79.2664C32.8488 79.6815 32.5707 80.0398 32.2061 80.2932C31.8416 80.5467 31.4079 80.6833 30.9632 80.6847Z"
        fill="#FFB8B8"
      />
      <path
        d="M16.5558 83.1969C11.3554 83.2096 10.8989 75.3873 16.1109 74.8361C29.8929 74.0073 28.1489 70.5622 29.1955 80.7242C29.2276 81.0256 29.1383 81.3274 28.9471 81.5634C28.756 81.7994 28.4785 81.9502 28.1758 81.9828L17.0073 83.1728C16.8573 83.1888 16.7066 83.1968 16.5558 83.1969Z"
        fill="#B3FBFF"
      />
      <path
        d="M15.3686 58.4655C22.5329 62.523 16.6513 73.2286 9.35351 69.4164C2.18946 65.3591 8.07097 54.6535 15.3686 58.4655Z"
        fill="#FFB8B8"
      />
      <path
        d="M21.8823 150.619L25.0118 150.619L26.5008 138.604L21.8818 138.605L21.8823 150.619Z"
        fill="#FFB8B8"
      />
      <path
        d="M21.2116 153.511L31.0477 153.511C31.0101 148.46 24.4313 149.915 21.2114 149.729L21.2116 153.511Z"
        fill="#2F2E41"
      />
      <path
        d="M8.35256 150.619L11.482 150.619L12.9711 138.604L8.35205 138.605L8.35256 150.619Z"
        fill="#FFB8B8"
      />
      <path
        d="M7.68181 153.511L17.5179 153.511C17.4803 148.46 10.9015 149.915 7.68164 149.729L7.68181 153.511Z"
        fill="#2F2E41"
      />
      <path
        d="M11.909 146.423C11.1526 146.216 7.04238 146.841 6.5573 146.021C4.86328 129.123 5.23984 112.585 9.00025 103.497L21.9297 102.709C24.8209 107.963 31.4669 142.821 27.4579 144.94L22.3027 145.123C22.0088 145.133 21.7204 145.041 21.4862 144.864C21.2519 144.687 21.086 144.435 21.0163 144.151L16.7034 119.73C15.6294 118.236 13.5182 145.449 13.1696 145.347C13.1241 145.647 12.9718 145.921 12.7404 146.118C12.5089 146.316 12.2139 146.424 11.909 146.423Z"
        fill="#2F2E41"
      />
      <path
        d="M8.5896 105.633C2.06172 98.836 6.22562 80.6127 6.01488 81.0003C6.03276 80.5539 7.51132 73.679 11.336 72.5507C14.3704 71.554 17.729 74.5354 18.1433 77.5509L22.6889 104.267C22.7124 104.413 22.7012 104.562 22.6563 104.702C22.6113 104.842 22.5339 104.97 22.4301 105.075C22.6536 105.768 8.90917 105.494 8.5896 105.633Z"
        fill="#B3FBFF"
      />
      <path
        d="M10.7082 63.2467C11.2815 62.886 11.564 62.2674 11.8977 61.7038C13.6554 60.7068 15.676 63.1187 17.5352 62.2186C22.792 57.1958 17.3886 55.714 12.5469 55.4492C11.4031 55.3089 10.4302 55.7127 9.56546 56.3796C-0.105942 55.6445 4.53233 68.4436 10.6362 70.1341C11.7138 70.6039 12.5223 69.653 11.5719 68.7886C10.257 67.4166 8.62811 64.6549 10.7082 63.2467Z"
        fill="#2F2E41"
      />
      <path
        d="M111.092 57.4531H41.1454C39.9949 57.4547 38.892 57.9103 38.0785 58.7199C37.265 59.5296 36.8073 60.6272 36.8057 61.7723V149.681C36.8073 150.826 37.265 151.924 38.0785 152.733C38.8921 153.543 39.9949 153.998 41.1454 154H111.092C112.242 153.998 113.345 153.543 114.159 152.733C114.972 151.924 115.43 150.826 115.432 149.681V61.7723C115.43 60.6272 114.972 59.5296 114.159 58.7199C113.345 57.9103 112.242 57.4547 111.092 57.4531ZM114.921 149.681C114.92 150.691 114.516 151.66 113.798 152.374C113.08 153.089 112.107 153.491 111.092 153.492H41.1454C40.1302 153.491 39.157 153.089 38.4391 152.374C37.7213 151.66 37.3175 150.691 37.3162 149.681V61.7723C37.3175 60.7619 37.7213 59.7932 38.4391 59.0788C39.157 58.3644 40.1302 57.9624 41.1454 57.9612H111.092C112.107 57.9624 113.08 58.3644 113.798 59.0788C114.516 59.7932 114.92 60.7619 114.921 61.7723V149.681Z"
        fill="#3F3D56"
      />
      <path
        d="M21.4371 94.4452C19.1318 94.7051 18.1197 89.3658 17.2383 88.0054L21.8294 86.2311L23.3233 88.9504L35.8392 89.2601C35.9135 89.1598 35.9948 89.0647 36.0823 88.9755C38.5644 86.3889 42.6066 90.2645 40.1338 92.8455C39.861 93.134 39.5299 93.3617 39.1622 93.5136C38.7946 93.6654 38.3987 93.738 38.0009 93.7266C37.603 93.7151 37.212 93.6199 36.8538 93.4471C36.4956 93.2743 36.1782 93.028 35.9226 92.7243C35.6135 92.7462 21.7394 94.4533 21.4371 94.4452Z"
        fill="#FFB8B8"
      />
      <path
        d="M18.0373 91.8966C17.2697 92.6327 11.3769 82.2995 10.9464 82.0074C7.96877 77.4011 14.9787 72.8533 18.0077 77.4346L24.1336 86.8045C24.2994 87.0587 24.3572 87.368 24.2941 87.6646C24.2311 87.9611 24.0524 88.2206 23.7973 88.3862C23.5181 88.5163 18.2344 92.1764 18.0373 91.8966Z"
        fill="#B3FBFF"
      />
      <path
        d="M97.3068 118.303H54.9305C50.6018 118.282 50.5838 111.72 54.9308 111.697H97.3068C101.633 111.717 101.656 118.28 97.3068 118.303Z"
        fill="#DDDDDD"
      />
      <path
        d="M97.3068 130.498H54.9305C50.6018 130.478 50.5838 123.915 54.9308 123.893H97.3068C101.633 123.913 101.656 130.476 97.3068 130.498Z"
        fill="#DDDDDD"
      />
      <path
        d="M97.3068 142.694H54.9305C50.6018 142.673 50.5838 136.11 54.9308 136.088H97.3068C101.633 136.108 101.656 142.671 97.3068 142.694Z"
        fill="#DDDDDD"
      />
      <path
        d="M113.134 65.5833C111.821 65.5833 110.538 65.1959 109.446 64.47C108.355 63.7442 107.504 62.7125 107.002 61.5054C106.499 60.2984 106.368 58.9702 106.624 57.6887C106.88 56.4073 107.512 55.2303 108.441 54.3065C109.369 53.3826 110.551 52.7535 111.839 52.4986C113.126 52.2437 114.461 52.3745 115.674 52.8745C116.887 53.3745 117.923 54.2212 118.653 55.3075C119.382 56.3938 119.771 57.671 119.771 58.9775C119.769 60.7288 119.069 62.4079 117.825 63.6463C116.581 64.8847 114.894 65.5813 113.134 65.5833Z"
        fill="#B3FBFF"
      />
      <path
        d="M116.197 58.7234H113.389V55.5475C113.389 55.4801 113.362 55.4155 113.315 55.3679C113.267 55.3202 113.202 55.2935 113.134 55.2935C113.066 55.2935 113.001 55.3202 112.954 55.3679C112.906 55.4155 112.879 55.4801 112.879 55.5475V58.7234H110.071C110.003 58.7234 109.938 58.7502 109.89 58.7978C109.842 58.8455 109.815 58.9101 109.815 58.9775C109.815 59.0449 109.842 59.1095 109.89 59.1571C109.938 59.2048 110.003 59.2316 110.071 59.2316H112.879V62.4074C112.879 62.4748 112.906 62.5394 112.954 62.5871C113.001 62.6347 113.066 62.6615 113.134 62.6615C113.202 62.6615 113.267 62.6347 113.315 62.5871C113.362 62.5394 113.389 62.4748 113.389 62.4074V59.2316H116.197C116.265 59.2316 116.33 59.2048 116.378 59.1571C116.426 59.1095 116.453 59.0449 116.453 58.9775C116.453 58.9101 116.426 58.8455 116.378 58.7978C116.33 58.7502 116.265 58.7234 116.197 58.7234Z"
        fill="white"
      />
      <path
        d="M96.5406 103.77H55.696C54.5793 103.769 53.5086 103.327 52.719 102.541C51.9293 101.755 51.4851 100.689 51.4839 99.578V76.8133C51.4851 75.7019 51.9293 74.6363 52.719 73.8504C53.5086 73.0645 54.5793 72.6224 55.696 72.6212H96.5406C97.6573 72.6224 98.7279 73.0645 99.5176 73.8504C100.307 74.6363 100.751 75.7019 100.753 76.8133V99.578C100.751 100.689 100.307 101.755 99.5176 102.541C98.7279 103.327 97.6573 103.769 96.5406 103.77Z"
        fill="#B3FBFF"
      />
    </g>
    <defs>
      <filter
        id="filter0_d"
        x="0"
        y="0"
        width="237"
        height="162"
        filterUnits="userSpaceOnUse"
        color-interpolation-filters="sRGB"
      >
        <feFlood flood-opacity="0" result="BackgroundImageFix" />
        <feColorMatrix
          in="SourceAlpha"
          type="matrix"
          values="0 0 0 0 0 0 0 0 0 0 0 0 0 0 0 0 0 0 127 0"
        />
        <feOffset dy="4" />
        <feGaussianBlur stdDeviation="2" />
        <feColorMatrix
          type="matrix"
          values="0 0 0 0 0 0 0 0 0 0 0 0 0 0 0 0 0 0 0.25 0"
        />
        <feBlend
          mode="normal"
          in2="BackgroundImageFix"
          result="effect1_dropShadow"
        />
        <feBlend
          mode="normal"
          in="SourceGraphic"
          in2="effect1_dropShadow"
          result="shape"
        />
      </filter>
      <clipPath id="clip0">
        <rect width="229" height="154" fill="white" transform="translate(4)" />
      </clipPath>
    </defs>
  </svg>