<svg width="210" height="148" viewBox="0 0 210 148" fill="none" xmlns="http://www.w3.org/2000/svg">
<g clip-path="url(#clip0)">
<path d="M107.251 147.686C113.567 147.686 118.688 142.566 118.688 136.249C118.688 129.933 113.567 124.812 107.251 124.812C100.935 124.812 95.8149 129.933 95.8149 136.249C95.8149 142.566 100.935 147.686 107.251 147.686Z" fill="#FFE45E"/>
<path d="M175.573 147.044C181.971 145.122 188.773 143.118 193.847 138.55C198.381 134.468 201.442 128.235 199.564 122.113C197.689 116.004 192.074 111.93 186.277 109.904C182.989 108.755 179.55 108.117 176.111 107.616C172.373 107.072 168.619 106.626 164.866 106.197C149.671 104.459 134.419 103.397 119.11 103.012C111.556 102.821 104.003 102.826 96.4478 102.936C89.7005 103.034 82.5944 103.031 76.335 100.163C71.4675 97.9331 67.0497 93.8756 65.6934 88.5438C64.1278 82.3891 67.0156 76.1213 71.158 71.6638C73.3415 69.3143 75.8935 67.3367 78.526 65.5184C81.382 63.5457 84.3375 61.7127 87.3571 60.0017C93.3043 56.6335 99.5218 53.7669 105.945 51.4318C109.114 50.2795 112.33 49.2854 115.574 48.3683C118.313 47.5939 121.06 46.8184 123.707 45.7633C128.825 43.7236 133.692 40.2686 134.993 34.6044C136.226 29.2361 134.147 23.4084 130.502 19.4204C126.285 14.8066 119.926 12.784 113.83 12.4568C106.986 12.0894 100.299 13.8024 93.8666 15.9764C87.0056 18.2951 80.2925 20.9612 73.2866 22.8394C66.3392 24.7 59.2574 26.0164 52.1055 26.7768C48.6044 27.1496 44.9975 27.5706 41.4756 27.2852C38.5239 27.046 35.5873 26.1779 33.412 24.0829C31.5467 22.2866 30.4356 19.8179 30.8176 17.2127C30.887 16.7395 31.6058 16.9407 31.5368 17.411C31.0718 20.5823 33.2274 23.5046 35.8837 25.0015C38.9536 26.7315 42.6893 26.7339 46.1072 26.536C53.5182 26.0884 60.879 25.0243 68.1133 23.3547C75.2219 21.731 82.0766 19.4098 88.9235 16.9303C95.4263 14.5754 102.074 12.277 109.022 11.7669C115.05 11.3243 121.391 12.2026 126.642 15.3529C131.257 18.1217 134.651 22.739 135.733 28.0376C136.789 33.2152 135.326 38.4266 131.407 42.0397C127.349 45.7807 121.785 47.3801 116.6 48.8531C110.024 50.7214 103.588 52.9053 97.359 55.7409C91.045 58.6071 84.9895 62.0116 79.2597 65.9169C73.7289 69.6966 68.2707 74.4525 66.5215 81.1955C65.7067 84.3365 65.8571 87.6679 67.2205 90.6347C68.4327 93.2726 70.4293 95.4916 72.7551 97.2031C78.3044 101.287 85.2984 102.125 92.0015 102.209C99.53 102.302 107.059 102.048 114.59 102.172C129.937 102.424 145.254 103.358 160.538 104.974C164.368 105.38 168.194 105.828 172.014 106.319C175.45 106.76 178.898 107.199 182.277 107.983C188.284 109.378 194.129 112.059 197.863 117.152C199.52 119.36 200.546 121.976 200.833 124.722C201.094 127.587 200.393 130.458 199.098 133.007C196.23 138.648 190.86 142.237 185.157 144.594C182.102 145.857 178.934 146.813 175.771 147.763C175.31 147.901 175.114 147.182 175.573 147.044L175.573 147.044Z" fill="#F2F2F2"/>
<path d="M31.2993 23.2469C34.5947 23.2469 37.2661 20.5754 37.2661 17.2798C37.2661 13.9843 34.5947 11.3127 31.2993 11.3127C28.0039 11.3127 25.3325 13.9843 25.3325 17.2798C25.3325 20.5754 28.0039 23.2469 31.2993 23.2469Z" fill="#F2F2F2"/>
<path d="M72.6938 34.5596C75.9892 34.5596 78.6606 31.888 78.6606 28.5925C78.6606 25.2969 75.9892 22.6254 72.6938 22.6254C69.3985 22.6254 66.7271 25.2969 66.7271 28.5925C66.7271 31.888 69.3985 34.5596 72.6938 34.5596Z" fill="#F2F2F2"/>
<path d="M107.749 11.9342C111.044 11.9342 113.715 9.26268 113.715 5.96712C113.715 2.67157 111.044 0 107.749 0C104.453 0 101.782 2.67157 101.782 5.96712C101.782 9.26268 104.453 11.9342 107.749 11.9342Z" fill="#F2F2F2"/>
<path d="M129.627 37.2945C132.922 37.2945 135.594 34.623 135.594 31.3274C135.594 28.0319 132.922 25.3603 129.627 25.3603C126.332 25.3603 123.66 28.0319 123.66 31.3274C123.66 34.623 126.332 37.2945 129.627 37.2945Z" fill="#F2F2F2"/>
<path d="M100.041 66.6329C103.337 66.6329 106.008 63.9613 106.008 60.6658C106.008 57.3702 103.337 54.6987 100.041 54.6987C96.7461 54.6987 94.0747 57.3702 94.0747 60.6658C94.0747 63.9613 96.7461 66.6329 100.041 66.6329Z" fill="#F2F2F2"/>
<path d="M62.5005 80.8048C65.7959 80.8048 68.4673 78.1333 68.4673 74.8377C68.4673 71.5422 65.7959 68.8706 62.5005 68.8706C59.2051 68.8706 56.5337 71.5422 56.5337 74.8377C56.5337 78.1333 59.2051 80.8048 62.5005 80.8048Z" fill="#F2F2F2"/>
<path d="M102.279 102.933C105.575 102.933 108.246 100.261 108.246 96.9658C108.246 93.6702 105.575 90.9987 102.279 90.9987C98.9839 90.9987 96.3125 93.6702 96.3125 96.9658C96.3125 100.261 98.9839 102.933 102.279 102.933Z" fill="#F2F2F2"/>
<path d="M145.041 115.364C148.336 115.364 151.008 112.693 151.008 109.397C151.008 106.102 148.336 103.43 145.041 103.43C141.746 103.43 139.074 106.102 139.074 109.397C139.074 112.693 141.746 115.364 145.041 115.364Z" fill="#F2F2F2"/>
<path d="M195.013 112.63C198.309 112.63 200.98 109.958 200.98 106.662C200.98 103.367 198.309 100.695 195.013 100.695C191.718 100.695 189.046 103.367 189.046 106.662C189.046 109.958 191.718 112.63 195.013 112.63Z" fill="#F2F2F2"/>
<path d="M106.026 16.9077C88.1525 17.034 73.5179 31.5595 73.264 49.4326C73.2617 49.5976 73.2606 50.7579 73.2608 52.2755C73.2609 54.5006 74.1448 56.6346 75.718 58.208C77.2913 59.7814 79.425 60.6655 81.65 60.6658H81.65C82.753 60.6655 83.8451 60.448 84.8639 60.0255C85.8828 59.603 86.8084 58.9838 87.5879 58.2035C88.3674 57.4231 88.9854 56.4968 89.4068 55.4774C89.8282 54.4581 90.0446 53.3657 90.0436 52.2626C90.0428 51.2303 90.0422 50.5158 90.0422 50.4719C90.0417 47.7097 90.7601 44.9948 92.1269 42.5945C93.4937 40.1941 95.4619 38.1909 97.8376 36.7819C100.213 35.3729 102.915 34.6067 105.677 34.5586C108.438 34.5105 111.165 35.1822 113.588 36.5076C116.012 37.833 118.048 39.7664 119.498 42.1177C120.948 44.4691 121.76 47.1572 121.856 49.9179C121.951 52.6785 121.327 55.4164 120.043 57.8624C118.76 60.3084 116.862 62.3781 114.536 63.868L114.539 63.8715C114.539 63.8715 102.598 71.5591 98.9579 82.1049L98.961 82.1057C98.3209 84.2661 97.9965 86.5077 97.998 88.761C97.998 89.6872 98.0524 97.7916 98.1577 104.369C98.1945 106.639 99.1221 108.803 100.74 110.395C102.358 111.987 104.537 112.879 106.807 112.878H106.807C107.948 112.878 109.077 112.652 110.13 112.214C111.183 111.776 112.139 111.134 112.943 110.325C113.747 109.516 114.383 108.556 114.814 107.5C115.246 106.445 115.464 105.314 115.457 104.173C115.421 98.1493 115.401 91.1348 115.401 90.6257C115.401 84.1502 121.648 77.6982 126.779 73.4908C132.687 68.6457 136.939 62.0431 138.647 54.5951C139.025 53.0617 139.233 51.4914 139.268 49.9125C139.268 45.5581 138.407 41.2467 136.733 37.2268C135.06 33.2068 132.607 29.5578 129.517 26.4899C126.427 23.4219 122.761 20.9958 118.729 19.3513C114.697 17.7067 110.38 16.8763 106.026 16.9077Z" fill="#FFE45E"/>
<path d="M209.704 148H0.296144C0.217782 148 0.142709 147.969 0.0873792 147.913C0.0320492 147.858 0.000976562 147.782 0.000976562 147.704C0.000976562 147.626 0.0320492 147.55 0.0873792 147.495C0.142709 147.439 0.217782 147.408 0.296144 147.408H209.704C209.783 147.408 209.858 147.439 209.913 147.495C209.969 147.55 210 147.625 210 147.704C210 147.783 209.969 147.858 209.913 147.913C209.858 147.969 209.783 148 209.704 148Z" fill="#EDEDED"/>
<path d="M156.243 67.875C160.362 67.875 163.701 64.5356 163.701 60.4161C163.701 56.2967 160.362 52.9572 156.243 52.9572C152.123 52.9572 148.784 56.2967 148.784 60.4161C148.784 64.5356 152.123 67.875 156.243 67.875Z" fill="#2F2E41"/>
<path d="M142.46 144.735H139.412L137.962 132.978H142.461L142.46 144.735Z" fill="#A0616A"/>
<path d="M137.235 143.864H143.113V147.565H133.534C133.534 147.079 133.629 146.598 133.815 146.149C134.001 145.7 134.274 145.292 134.618 144.948C134.961 144.604 135.369 144.332 135.818 144.146C136.267 143.96 136.749 143.864 137.235 143.864Z" fill="#2F2E41"/>
<path d="M166.079 144.735H163.031L161.581 132.978H166.079L166.079 144.735Z" fill="#A0616A"/>
<path d="M160.853 143.864H166.732V147.565H157.152C157.152 147.079 157.248 146.598 157.434 146.149C157.62 145.7 157.893 145.292 158.236 144.948C158.58 144.604 158.988 144.332 159.437 144.146C159.886 143.96 160.367 143.864 160.853 143.864Z" fill="#2F2E41"/>
<path d="M155.109 67.9186C158.482 67.9186 161.215 65.1845 161.215 61.8119C161.215 58.4393 158.482 55.7053 155.109 55.7053C151.737 55.7053 149.003 58.4393 149.003 61.8119C149.003 65.1845 151.737 67.9186 155.109 67.9186Z" fill="#A0616A"/>
<path d="M158.748 87.6187L161.481 81.3408C162.144 79.8681 162.334 78.2257 162.025 76.6403C161.715 75.0549 160.921 73.6046 159.753 72.4896C159.513 72.2523 159.258 72.0306 158.989 71.8258C157.641 70.7711 155.98 70.1962 154.268 70.1923C153.117 70.1967 151.981 70.4495 150.937 70.9332C150.847 70.973 150.76 71.0152 150.671 71.0575C150.499 71.1395 150.33 71.2291 150.166 71.321C149.096 71.9356 148.185 72.7932 147.507 73.8245C146.829 74.8558 146.403 76.032 146.263 77.2583L145.057 87.3627C144.754 88.1558 133.934 116.798 137.718 138.665C137.758 138.899 137.872 139.113 138.043 139.277C138.214 139.441 138.433 139.547 138.668 139.577L142.504 140.1C142.784 140.138 143.068 140.069 143.299 139.906C143.53 139.743 143.691 139.499 143.749 139.222L150.186 108.538C150.226 108.348 150.329 108.176 150.478 108.051C150.627 107.926 150.814 107.854 151.009 107.847C151.204 107.841 151.395 107.9 151.552 108.015C151.709 108.129 151.824 108.294 151.877 108.481L160.971 140.749C161.036 140.983 161.176 141.19 161.369 141.337C161.563 141.484 161.799 141.564 162.042 141.564C162.115 141.564 162.187 141.557 162.259 141.544L166.945 140.642C167.218 140.591 167.461 140.44 167.628 140.219C167.795 139.997 167.873 139.722 167.848 139.446C167.159 131.766 163.499 93.295 158.748 87.6187Z" fill="#2F2E41"/>
<path d="M131.379 66.894C131.336 67.257 131.374 67.6249 131.489 67.9718C131.604 68.3187 131.794 68.6361 132.045 68.9017C132.296 69.1672 132.603 69.3745 132.943 69.5089C133.283 69.6433 133.648 69.7015 134.013 69.6795L137.426 77.8824L140.008 74.0549L136.371 66.852C136.293 66.2416 135.994 65.6808 135.531 65.276C135.067 64.8712 134.471 64.6504 133.856 64.6556C133.241 64.6608 132.649 64.8915 132.192 65.304C131.735 65.7166 131.446 66.2823 131.379 66.8939L131.379 66.894Z" fill="#A0616A"/>
<path d="M154.77 95.8783C155.133 95.835 155.482 95.7125 155.793 95.5197C156.103 95.3268 156.368 95.0683 156.567 94.7622C156.767 94.4561 156.897 94.1099 156.949 93.748C157 93.3862 156.972 93.0174 156.865 92.6677L164.047 87.4369L159.723 85.8178L153.567 91.0333C152.991 91.251 152.515 91.6724 152.23 92.2174C151.944 92.7625 151.868 93.3934 152.017 93.9906C152.165 94.5878 152.527 95.1098 153.035 95.4577C153.542 95.8057 154.16 95.9553 154.77 95.8783Z" fill="#A0616A"/>
<path d="M143.063 83.351C142.788 83.3508 142.513 83.3237 142.243 83.2702C141.59 83.1459 140.978 82.8627 140.46 82.4458C139.942 82.0289 139.534 81.4909 139.273 80.8793L134.491 75.0481C134.39 74.9248 134.316 74.7814 134.275 74.6273C134.234 74.4733 134.226 74.3123 134.252 74.155C134.279 73.9977 134.338 73.8478 134.427 73.7154C134.516 73.583 134.632 73.4711 134.767 73.3871L138.169 71.281C138.295 71.2033 138.435 71.1511 138.581 71.1277C138.727 71.1042 138.876 71.1099 139.019 71.1443C139.163 71.1787 139.298 71.2413 139.418 71.3284C139.537 71.4154 139.638 71.5253 139.715 71.6516L143.085 77.2045L149.539 72.4341C150.053 72.1646 150.647 72.0891 151.212 72.2212C151.777 72.3533 152.276 72.6843 152.617 73.1538C152.958 73.6232 153.119 74.1997 153.07 74.7779C153.021 75.3562 152.766 75.8975 152.351 76.3032L145.909 82.18C145.152 82.9304 144.129 83.3513 143.063 83.351Z" fill="#2F2E41"/>
<path d="M160.504 92.1208C160.495 92.1208 160.486 92.1208 160.478 92.1206C160.321 92.1168 160.166 92.08 160.025 92.0128C159.883 91.9455 159.757 91.8492 159.654 91.7302L156.63 88.2013C156.527 88.0811 156.45 87.9404 156.406 87.7885C156.361 87.6366 156.349 87.477 156.371 87.3202C156.392 87.1634 156.447 87.013 156.531 86.8789C156.615 86.7447 156.727 86.63 156.859 86.5422L162.522 82.7661L157.391 76.597C157.093 76.0993 156.983 75.5109 157.083 74.9392C157.182 74.3675 157.484 73.8507 157.933 73.4832C158.382 73.1157 158.949 72.9221 159.529 72.9376C160.109 72.9532 160.664 73.177 161.093 73.568L167.329 79.6626C167.82 80.111 168.194 80.6718 168.421 81.2969C168.647 81.922 168.718 82.5926 168.628 83.2514C168.539 83.9101 168.29 84.5371 167.905 85.0787C167.519 85.6203 167.008 86.0603 166.415 86.3608L161.318 91.7695C161.213 91.8804 161.087 91.9687 160.947 92.0291C160.807 92.0895 160.656 92.1207 160.504 92.1208Z" fill="#2F2E41"/>
<path d="M153.556 79.1177C153.508 79.1177 153.459 79.1146 153.411 79.1085C153.201 79.0829 153.002 78.9974 152.838 78.8621C152.675 78.7269 152.553 78.5476 152.489 78.3455L150.216 71.3765C150.159 71.2003 150.168 71.0095 150.241 70.8393C150.313 70.669 150.445 70.5309 150.612 70.4505L150.686 70.4156C150.753 70.3838 150.819 70.3524 150.887 70.3223C151.947 69.8307 153.1 69.5743 154.269 69.5707C155.785 69.5735 157.268 70.0191 158.535 70.8528C158.705 70.9659 158.824 71.1411 158.866 71.3408C158.908 71.5405 158.869 71.7487 158.759 71.9205L154.495 78.6006C154.395 78.7593 154.257 78.8899 154.093 78.9803C153.928 79.0708 153.744 79.118 153.556 79.1177Z" fill="#E6E6E6"/>
<path d="M162.123 57.0862C163.471 57.0862 164.564 55.9935 164.564 54.6455C164.564 53.2975 163.471 52.2048 162.123 52.2048C160.775 52.2048 159.683 53.2975 159.683 54.6455C159.683 55.9935 160.775 57.0862 162.123 57.0862Z" fill="#2F2E41"/>
<path d="M153.756 51.9627C152.042 51.9627 150.398 52.6438 149.186 53.8561C147.974 55.0684 147.292 56.7126 147.292 58.4271V61.162H150.656L152.265 58.4271L152.747 61.162H162.955L160.221 58.4271C160.221 56.7126 159.539 55.0684 158.327 53.8561C157.115 52.6438 155.471 51.9627 153.756 51.9627Z" fill="#2F2E41"/>
<path d="M163.377 52.9736C163.647 52.1297 164.206 51.4079 164.956 50.9352C165.705 50.4624 166.597 50.269 167.475 50.389C169.03 50.649 170.26 51.8993 170.993 53.2957C171.725 54.6922 172.064 56.2551 172.556 57.7532C173.049 59.2513 173.747 60.7575 174.991 61.7273C176.235 62.697 178.143 62.9601 179.364 61.9625C179.225 63.0022 178.762 63.9717 178.041 64.7338C177.32 65.496 176.378 66.0123 175.348 66.2098C174.318 66.4072 173.252 66.2757 172.3 65.8339C171.349 65.3921 170.561 64.6624 170.047 63.748C169.402 62.6014 169.236 61.2575 169.045 59.9561C168.854 58.6547 168.605 57.3082 167.836 56.2415C167.067 55.1747 165.626 54.4779 164.404 54.9639L163.377 52.9736Z" fill="#2F2E41"/>
<path d="M84.0191 56.6972C81.7941 56.697 79.6603 55.8129 78.087 54.2394C76.5138 52.666 75.6299 50.532 75.6297 48.3069C75.6296 46.7893 75.6307 45.6291 75.633 45.464C75.7037 40.266 77.0127 35.1598 79.4515 30.5689C75.4447 36.0544 73.2415 42.6496 73.1468 49.4421C73.1445 49.6071 73.1434 50.7674 73.1436 52.285C73.1437 54.5101 74.0276 56.6441 75.6009 58.2175C77.1741 59.791 79.3079 60.675 81.5329 60.6753C83.3612 60.6746 85.1394 60.0771 86.5972 58.9736C88.055 57.8701 89.1128 56.3209 89.6099 54.5613C88.0738 55.9389 86.0824 56.6997 84.0191 56.6972Z" fill="#EDEDED"/>
<path d="M106.595 34.5868C109.167 34.7096 111.671 35.455 113.892 36.7588C116.113 38.0626 117.984 39.8859 119.345 42.0723C120.706 44.2586 121.516 46.7425 121.705 49.3109C121.895 51.8792 121.458 54.4551 120.433 56.8175C121.916 55.0758 123.006 53.0347 123.629 50.8335C124.251 48.6323 124.392 46.3227 124.041 44.0622C123.691 41.8016 122.856 39.6433 121.596 37.7343C120.336 35.8253 118.678 34.2106 116.737 33.0002C114.796 31.7898 112.617 31.0122 110.348 30.7204C108.079 30.4286 105.774 30.6294 103.59 31.3093C101.406 31.9891 99.3943 33.1319 97.6919 34.6598C95.9894 36.1877 94.6364 38.0648 93.7251 40.163C95.3001 38.31 97.2797 36.8436 99.5111 35.8768C101.743 34.91 104.166 34.4686 106.595 34.5868Z" fill="#EDEDED"/>
<path d="M109.176 108.91C106.906 108.91 104.727 108.018 103.109 106.426C101.491 104.835 100.563 102.67 100.526 100.401C100.421 93.823 100.367 85.7186 100.367 84.7924C100.365 82.5391 100.689 80.2975 101.33 78.1371L101.327 78.1363C101.705 77.0519 102.161 75.9965 102.692 74.9785C101.061 77.1526 99.7628 79.5576 98.8404 82.1144L98.8434 82.1152C98.2033 84.2756 97.8789 86.5172 97.8804 88.7705C97.8804 89.6967 97.9349 97.8011 98.0401 104.379C98.077 106.649 99.0045 108.813 100.623 110.404C102.241 111.996 104.42 112.888 106.689 112.888C108.561 112.887 110.382 112.28 111.879 111.157C113.376 110.034 114.469 108.456 114.994 106.66C113.403 108.11 111.328 108.913 109.176 108.91Z" fill="#EDEDED"/>
<path d="M31.4602 144.848L34.508 144.848L35.9582 133.091L31.4595 133.091L31.4602 144.848Z" fill="#FFB8B8"/>
<path d="M40.3862 147.678L30.8069 147.679L30.8067 143.977L36.685 143.977C37.6665 143.977 38.608 144.367 39.3021 145.061C39.9962 145.755 40.3862 146.697 40.3862 147.678L40.3862 147.678Z" fill="#2F2E41"/>
<path d="M20.5208 144.848L23.5686 144.848L25.0187 133.091L20.52 133.091L20.5208 144.848Z" fill="#FFB8B8"/>
<path d="M29.4473 147.678L19.8679 147.679L19.8677 143.977L25.746 143.977C26.7276 143.977 27.669 144.367 28.3631 145.061C29.0572 145.755 29.4472 146.697 29.4473 147.678L29.4473 147.678Z" fill="#2F2E41"/>
<path d="M23.1845 141.232L20.2074 141.076C20.0538 141.068 19.9034 141.029 19.7649 140.963C19.6264 140.896 19.5024 140.803 19.4002 140.688C19.2981 140.573 19.2197 140.439 19.1697 140.293C19.1196 140.148 19.099 139.994 19.1088 139.841L22.6672 100.441L39.0537 104.863L40.6325 104.433L35.6954 139.312C35.6534 139.574 35.5231 139.814 35.3261 139.993C35.1291 140.171 34.8771 140.277 34.6119 140.292L31.4025 140.442C31.2421 140.451 31.0815 140.426 30.931 140.37C30.7804 140.314 30.6432 140.227 30.528 140.115C30.4128 140.003 30.322 139.868 30.2615 139.719C30.201 139.57 30.1721 139.41 30.1765 139.25L30.758 118.316C30.7607 118.219 30.7271 118.125 30.6637 118.051C30.6004 117.978 30.5119 117.931 30.4157 117.92C30.3195 117.909 30.2226 117.934 30.1441 117.991C30.0656 118.047 30.0111 118.131 29.9915 118.226L24.3835 140.308C24.3305 140.57 24.1884 140.805 23.9812 140.974C23.7741 141.143 23.5148 141.235 23.2475 141.234C23.2266 141.234 23.2057 141.234 23.1845 141.232Z" fill="#2F2E41"/>
<path d="M32.0071 68.2042C35.3795 68.2042 38.1134 65.4702 38.1134 62.0976C38.1134 58.725 35.3795 55.991 32.0071 55.991C28.6347 55.991 25.9009 58.725 25.9009 62.0976C25.9009 65.4702 28.6347 68.2042 32.0071 68.2042Z" fill="#FFB8B8"/>
<path d="M21.8408 80.0384L22.5122 94.5255L22.7549 99.7961C22.7646 100.026 22.8425 100.247 22.9786 100.432C23.1148 100.617 23.303 100.757 23.5192 100.834L39.2656 106.539C39.3928 106.586 39.5276 106.61 39.6633 106.608C39.8184 106.609 39.972 106.579 40.1151 106.519C40.2581 106.459 40.3876 106.371 40.4958 106.259C40.604 106.148 40.6888 106.016 40.7449 105.872C40.8011 105.727 40.8276 105.573 40.8227 105.418L40.1772 79.3696C40.1348 77.2325 39.3481 75.1771 37.9528 73.5578C36.5575 71.9386 34.6411 70.8569 32.5338 70.4992C32.3815 70.476 32.2265 70.4527 32.0716 70.432C30.7649 70.2698 29.4385 70.3959 28.1858 70.8015C26.9331 71.207 25.7844 71.8822 24.8207 72.7794C23.8227 73.6973 23.0386 74.8232 22.5237 76.0776C22.0087 77.3319 21.7756 78.6841 21.8408 80.0384L21.8408 80.0384Z" fill="#CCCCCC"/>
<path d="M46.7878 103.648C46.4154 103.532 46.0751 103.331 45.7942 103.061C45.5133 102.79 45.2994 102.458 45.1698 102.09C45.0401 101.722 44.9982 101.329 45.0474 100.943C45.0965 100.556 45.2355 100.186 45.4531 99.8622L40.1133 92.7613L44.7212 92.4761L49.0855 99.2629C49.5527 99.6242 49.8778 100.138 50.0038 100.715C50.1298 101.292 50.0486 101.895 49.7745 102.419C49.5004 102.942 49.0509 103.352 48.5047 103.576C47.9586 103.801 47.3508 103.827 46.7878 103.648H46.7878Z" fill="#FFB8B8"/>
<path d="M43.0332 98.5771C42.8917 98.5197 42.763 98.4348 42.6546 98.3273C42.5462 98.2199 42.4601 98.0919 42.4014 97.951L34.3567 78.783C34.1988 78.4077 34.1164 78.005 34.1143 77.5978C34.1122 77.1907 34.1903 76.7871 34.3441 76.4102C34.498 76.0333 34.7247 75.6904 35.0111 75.4011C35.2976 75.1118 35.6383 74.8818 36.0137 74.7242C36.3891 74.5666 36.7918 74.4846 37.1989 74.4828C37.6061 74.4809 38.0095 74.5593 38.3863 74.7135C38.7631 74.8677 39.1058 75.0947 39.3949 75.3814C39.6839 75.6681 39.9137 76.0089 40.0709 76.3845L48.1157 95.5527C48.2346 95.8369 48.2359 96.1567 48.1194 96.4418C48.0029 96.727 47.778 96.9543 47.4941 97.0739L43.9226 98.5729C43.782 98.6324 43.631 98.6634 43.4783 98.6641C43.3256 98.6649 43.1743 98.6353 43.0332 98.5772L43.0332 98.5771Z" fill="#CCCCCC"/>
<path d="M30.0439 97.9011L37.7707 83.1054C37.9197 82.8208 38.1755 82.607 38.4819 82.5109C38.7884 82.4147 39.1205 82.444 39.4053 82.5924L50.6208 88.4501C50.9053 88.5991 51.1191 88.8549 51.2153 89.1614C51.3115 89.4679 51.2822 89.8 51.1338 90.0848L43.407 104.881C43.258 105.165 43.0022 105.379 42.6957 105.475C42.3893 105.571 42.0572 105.542 41.7723 105.394L30.5569 99.5358C30.2724 99.3868 30.0586 99.131 29.9624 98.8245C29.8662 98.5181 29.8955 98.186 30.0439 97.9011Z" fill="#EDEDED"/>
<path d="M35.2259 91.1413C35.0886 90.7763 34.8678 90.4485 34.5812 90.184C34.2947 89.9195 33.9503 89.7257 33.5755 89.6179C33.2007 89.5102 32.806 89.4916 32.4227 89.5635C32.0395 89.6354 31.6783 89.796 31.3681 90.0323L23.9647 85.1208L23.9521 89.7378L30.9845 93.694C31.3727 94.1391 31.9052 94.4333 32.4886 94.525C33.072 94.6167 33.6691 94.5001 34.1751 94.1955C34.6811 93.891 35.0638 93.418 35.2559 92.8595C35.448 92.301 35.4374 91.6927 35.2259 91.1413Z" fill="#FFB8B8"/>
<path d="M25.8656 92.1796L19.8151 87.3865C19.1605 87.1667 18.5691 86.7914 18.0915 86.2927C17.6139 85.794 17.2645 85.1868 17.0733 84.5234C16.882 83.8599 16.8546 83.1599 16.9933 82.4835C17.1321 81.8071 17.4329 81.1745 17.87 80.6399L23.3637 73.4397C23.7455 72.9731 24.2824 72.6596 24.8763 72.5563C25.4702 72.4531 26.0814 72.567 26.5983 72.8773C27.1151 73.1876 27.503 73.6736 27.691 74.2463C27.8791 74.8191 27.8547 75.4404 27.6224 75.9967L23.2757 83.1075L29.6636 86.1376C29.8122 86.208 29.9441 86.3092 30.0506 86.4344C30.1572 86.5596 30.2359 86.706 30.2817 86.8639C30.3275 87.0218 30.3392 87.1876 30.3162 87.3504C30.2931 87.5132 30.2358 87.6693 30.148 87.8082L27.5694 91.8893C27.4822 92.027 27.3671 92.1449 27.2315 92.2353C27.0958 92.3258 26.9427 92.3867 26.7821 92.4142C26.7757 92.4153 26.7693 92.4163 26.7629 92.4172C26.605 92.4411 26.4439 92.4323 26.2896 92.3914C26.1352 92.3505 25.9909 92.2785 25.8656 92.1796Z" fill="#CCCCCC"/>
<path d="M27.3932 66.1867C27.367 66.1101 27.3587 66.0284 27.3689 65.9481C27.3791 65.8677 27.4076 65.7908 27.4521 65.7231C27.4967 65.6554 27.5561 65.5989 27.6259 65.5578C27.6957 65.5166 27.774 65.492 27.8547 65.4858C28.0201 65.4948 28.182 65.5372 28.3305 65.6105C28.479 65.6838 28.6112 65.7864 28.7189 65.9122C28.9399 66.167 29.1972 66.3879 29.4825 66.5679C29.7779 66.7168 30.1785 66.6955 30.3469 66.4117C30.505 66.1451 30.3967 65.7881 30.3009 65.4784C30.0573 64.6906 29.921 63.8736 29.8957 63.0493C29.8681 62.1293 29.9979 61.1692 30.5072 60.4516C31.1645 59.5255 32.3399 59.1739 33.4522 59.1994C34.5645 59.2249 35.6588 59.5683 36.7606 59.7854C37.1409 59.8603 37.588 59.8986 37.8424 59.6038C38.1129 59.2903 38.0136 58.783 37.8985 58.3597C37.6 57.2614 37.2832 56.1259 36.5895 55.2388C35.8394 54.3171 34.768 53.7139 33.591 53.5506C32.461 53.4106 31.3139 53.5409 30.244 53.9306C28.5009 54.48 26.9672 55.5486 25.8478 56.9934C24.6939 58.5299 24.1953 60.4608 24.461 62.3639C24.7206 64.0214 25.5988 65.5188 26.9187 66.5544L27.3932 66.1867Z" fill="#2F2E41"/>
<path d="M104.732 144.897C103.107 144.189 101.669 143.114 100.531 141.755C99.3935 140.396 98.5871 138.792 98.1755 137.068C97.7639 135.345 97.7586 133.549 98.1599 131.823C98.5611 130.097 99.358 128.488 100.488 127.122C99.1779 128.079 98.0865 129.303 97.286 130.713C96.4854 132.124 95.994 133.688 95.8443 135.303C95.6945 136.918 95.89 138.546 96.4176 140.08C96.9452 141.613 97.7929 143.017 98.9045 144.198C100.016 145.379 101.366 146.31 102.865 146.929C104.364 147.548 105.977 147.841 107.598 147.789C109.219 147.737 110.81 147.341 112.266 146.627C113.722 145.913 115.01 144.897 116.043 143.647C114.431 144.826 112.539 145.561 110.554 145.78C108.569 145.999 106.562 145.695 104.732 144.897Z" fill="#EDEDED"/>
</g>
<defs>
<clipPath id="clip0">
<rect width="210" height="148" fill="white"/>
</clipPath>
</defs>
</svg>
