<svg width="201" height="148" viewBox="0 0 201 148" fill="none" xmlns="http://www.w3.org/2000/svg">
<path d="M201 0.137939H18.4829V0.908054H201V0.137939Z" fill="#C8C8C8"/>
<path d="M114.87 147.73C136.83 147.73 154.633 129.912 154.633 107.932C154.633 85.9515 136.83 68.1332 114.87 68.1332C92.9097 68.1332 75.1074 85.9515 75.1074 107.932C75.1074 129.912 92.9097 147.73 114.87 147.73Z" fill="#FFE45E"/>
<path d="M97.5086 50.1747C100.936 62.8548 112.674 70.7079 112.674 70.7079C112.674 70.7079 118.856 58.0025 115.429 45.3225C112.002 32.6424 100.264 24.7894 100.264 24.7894C100.264 24.7894 94.0815 37.4947 97.5086 50.1747Z" fill="#3F3D56"/>
<path d="M102.545 47.4497C111.949 56.6124 113.097 70.6975 113.097 70.6975C113.097 70.6975 98.9992 69.9271 89.5951 60.7644C80.1911 51.6017 79.0425 37.5165 79.0425 37.5165C79.0425 37.5165 93.1408 38.287 102.545 47.4497Z" fill="#FFE45E"/>
<path d="M117.771 45.6776C111.455 57.1922 114.472 70.9979 114.472 70.9979C114.472 70.9979 127.729 66.1348 134.045 54.6203C140.361 43.1057 137.345 29.3 137.345 29.3C137.345 29.3 124.088 34.1631 117.771 45.6776Z" fill="#3F3D56"/>
<path d="M123.288 47.2096C123.715 60.3385 114.784 71.284 114.784 71.284C114.784 71.284 105.16 60.9433 104.733 47.8144C104.305 34.6855 113.237 23.7401 113.237 23.7401C113.237 23.7401 122.861 34.0808 123.288 47.2096Z" fill="#FFE45E"/>
<path d="M113.213 123.961C124.498 123.961 133.646 114.805 133.646 103.51C133.646 92.2142 124.498 83.0576 113.213 83.0576C101.928 83.0576 92.7793 92.2142 92.7793 103.51C92.7793 114.805 101.928 123.961 113.213 123.961Z" fill="#F2F2F2"/>
<path d="M119.84 100.193C123.5 100.193 126.467 97.2234 126.467 93.56C126.467 89.8967 123.5 86.9269 119.84 86.9269C116.18 86.9269 113.213 89.8967 113.213 93.56C113.213 97.2234 116.18 100.193 119.84 100.193Z" fill="#3F3D56"/>
<path d="M52.9556 147.984L51.9741 147.476C64.7213 122.81 57.9049 90.7773 49.9425 68.2487C44.5357 53.1062 37.6395 38.5387 29.3555 24.7608L30.289 24.1702C38.6161 38.0182 45.5482 52.6598 50.9833 67.8795C59.0191 90.6142 65.8835 122.967 52.9556 147.984Z" fill="#2F2E41"/>
<path d="M62.4069 24.3671L55.2417 63.6152L56.3279 63.8139L63.4931 24.5658L62.4069 24.3671Z" fill="#2F2E41"/>
<path d="M14.7635 57.8069L13.9546 58.5603L50.9558 98.3588L51.7646 97.6054L14.7635 57.8069Z" fill="#2F2E41"/>
<path d="M81.2822 101.524L62.5142 127.51L63.4094 128.158L82.1775 102.172L81.2822 101.524Z" fill="#2F2E41"/>
<path d="M65.7189 13.9632C68.7689 13.9632 71.2415 11.4884 71.2415 8.43563C71.2415 5.38285 68.7689 2.90808 65.7189 2.90808C62.6688 2.90808 60.1963 5.38285 60.1963 8.43563C60.1963 11.4884 62.6688 13.9632 65.7189 13.9632Z" fill="#FFE45E"/>
<path d="M5.52259 56.5254C8.57263 56.5254 11.0452 54.0506 11.0452 50.9978C11.0452 47.945 8.57263 45.4703 5.52259 45.4703C2.47255 45.4703 0 47.945 0 50.9978C0 54.0506 2.47255 56.5254 5.52259 56.5254Z" fill="#3F3D56"/>
<path d="M29.8219 62.0528C32.8719 62.0528 35.3445 59.5781 35.3445 56.5253C35.3445 53.4725 32.8719 50.9977 29.8219 50.9977C26.7719 50.9977 24.2993 53.4725 24.2993 56.5253C24.2993 59.5781 26.7719 62.0528 29.8219 62.0528Z" fill="#3F3D56"/>
<path d="M18.777 83.6103C21.827 83.6103 24.2996 81.1356 24.2996 78.0828C24.2996 75.03 21.827 72.5552 18.777 72.5552C15.7269 72.5552 13.2544 75.03 13.2544 78.0828C13.2544 81.1356 15.7269 83.6103 18.777 83.6103Z" fill="#FFE45E"/>
<path d="M87.8092 97.4293C90.8592 97.4293 93.3318 94.9545 93.3318 91.9017C93.3318 88.8489 90.8592 86.3741 87.8092 86.3741C84.7592 86.3741 82.2866 88.8489 82.2866 91.9017C82.2866 94.9545 84.7592 97.4293 87.8092 97.4293Z" fill="#3F3D56"/>
<path d="M69.5846 103.51C72.6346 103.51 75.1072 101.035 75.1072 97.982C75.1072 94.9292 72.6346 92.4544 69.5846 92.4544C66.5346 92.4544 64.062 94.9292 64.062 97.982C64.062 101.035 66.5346 103.51 69.5846 103.51Z" fill="#3F3D56"/>
<path d="M82.2868 121.198C85.3368 121.198 87.8093 118.723 87.8093 115.67C87.8093 112.617 85.3368 110.143 82.2868 110.143C79.2367 110.143 76.7642 112.617 76.7642 115.67C76.7642 118.723 79.2367 121.198 82.2868 121.198Z" fill="#3F3D56"/>
<path d="M24.2994 20.5962C27.3495 20.5962 29.822 18.1214 29.822 15.0686C29.822 12.0158 27.3495 9.54108 24.2994 9.54108C21.2494 9.54108 18.7769 12.0158 18.7769 15.0686C18.7769 18.1214 21.2494 20.5962 24.2994 20.5962Z" fill="#3F3D56"/>
</svg>
