<svg width="1440" height="651" viewBox="0 0 1440 651" fill="none" xmlns="http://www.w3.org/2000/svg">
<g clip-path="url(#clip0)">
<path d="M1301.88 262.183H1258.36V412.942H1301.88V262.183Z" fill="#F2F2F2"/>
<path d="M1330.62 384.581L1224.77 258.564L1012.29 260.508L883.394 386.139L885.999 387.815H885.068V649.13H1330.34V387.815L1330.62 384.581Z" fill="#F2F2F2"/>
<path d="M1224.88 258.833L1092.64 413.978V649.13H1330.34V384.464L1224.88 258.833Z" fill="#E6E6E6"/>
<path d="M1236.6 519.088H1188.05V562.025H1236.6V519.088Z" fill="#3F3D56"/>
<path d="M1236.6 444.768H1188.05V487.024H1236.6V444.768Z" fill="#3F3D56"/>
<path d="M1236.6 519.088H1188.05V562.025H1236.6V519.088Z" fill="white"/>
<path d="M1236.6 444.768H1188.05V487.024H1236.6V444.768Z" fill="white"/>
<path d="M1020.86 507.695H972.318V550.632H1020.86V507.695Z" fill="white"/>
<path d="M1020.86 433.375H972.318V475.631H1020.86V433.375Z" fill="white"/>
<path d="M958.427 262.183H914.905V412.942H958.427V262.183Z" fill="#F2F2F2"/>
<path d="M987.169 384.581L881.315 258.564L668.834 260.508L539.939 386.139L542.544 387.815H541.613V649.13H986.885V387.815L987.169 384.581Z" fill="#F2F2F2"/>
<path d="M881.426 258.833L749.184 413.978V649.13H986.885V384.464L881.426 258.833Z" fill="#E6E6E6"/>
<path d="M893.143 519.088H844.599V562.025H893.143V519.088Z" fill="#3F3D56"/>
<path d="M893.143 444.768H844.599V487.024H893.143V444.768Z" fill="#3F3D56"/>
<path d="M893.143 519.088H844.599V562.025H893.143V519.088Z" fill="white"/>
<path d="M893.143 444.768H844.599V487.024H893.143V444.768Z" fill="white"/>
<path d="M677.408 507.695H628.863V550.632H677.408V507.695Z" fill="white"/>
<path d="M677.408 433.375H628.863V475.631H677.408V433.375Z" fill="white"/>
<path d="M606.752 132.075H548.595V333.525H606.752V132.075Z" fill="#F2F2F2"/>
<path d="M645.158 295.628L503.711 127.24L219.785 129.837L47.5513 297.712L51.0306 299.95H49.7881V649.13H644.777V299.95L645.158 295.628Z" fill="#F2F2F2"/>
<path d="M503.858 127.598L327.15 334.911V649.13H644.777V295.473L503.858 127.598Z" fill="#E6E6E6"/>
<path d="M519.516 475.362H454.649V532.737H519.516V475.362Z" fill="#3F3D56"/>
<path d="M519.516 376.053H454.649V432.518H519.516V376.053Z" fill="#3F3D56"/>
<path d="M519.516 475.362H454.649V532.737H519.516V475.362Z" fill="white"/>
<path d="M519.516 376.053H454.649V432.518H519.516V376.053Z" fill="white"/>
<path d="M231.241 460.138H166.374V517.513H231.241V460.138Z" fill="white"/>
<path d="M231.241 360.829H166.374V417.294H231.241V360.829Z" fill="white"/>
<path d="M1391.06 647.84H0V650.728H1391.06V647.84Z" fill="#3F3D56"/>
<path d="M219.165 594.736C242.357 594.736 261.158 556.349 261.158 508.995C261.158 461.642 242.357 423.255 219.165 423.255C195.973 423.255 177.172 461.642 177.172 508.995C177.172 556.349 195.973 594.736 219.165 594.736Z" fill="#3F3D56"/>
<path d="M223.042 649.34C206.224 548.362 222.873 447.75 223.043 446.746L226.315 447.301C226.145 448.3 209.592 548.383 226.316 648.795L223.042 649.34Z" fill="#5AA9E6"/>
<path d="M256.135 490.559L218.163 510.884L219.728 513.812L257.701 493.487L256.135 490.559Z" fill="#5AA9E6"/>
<path d="M179.651 500.74L178.085 503.668L216.053 524.004L217.619 521.077L179.651 500.74Z" fill="#5AA9E6"/>
<path d="M118.268 544.463C163.629 544.463 200.401 469.381 200.401 376.764C200.401 284.146 163.629 209.064 118.268 209.064C72.9075 209.064 36.1353 284.146 36.1353 376.764C36.1353 469.381 72.9075 544.463 118.268 544.463Z" fill="#5AA9E6"/>
<path d="M127.417 651C94.5654 453.761 127.085 257.24 127.417 255.278L130.689 255.832C130.358 257.79 97.9333 453.782 130.69 650.455L127.417 651Z" fill="#3F3D56"/>
<path d="M191.328 342.102L117.056 381.856L118.621 384.784L192.893 345.03L191.328 342.102Z" fill="#3F3D56"/>
<path d="M40.237 362.016L38.6709 364.944L112.932 404.719L114.498 401.791L40.237 362.016Z" fill="#3F3D56"/>
<path d="M312.794 505.313C374.867 505.313 425.187 402.57 425.187 275.83C425.187 149.09 374.867 46.3464 312.794 46.3464C250.721 46.3464 200.401 149.09 200.401 275.83C200.401 402.57 250.721 505.313 312.794 505.313Z" fill="#5AA9E6"/>
<path d="M325.916 651C280.979 381.193 325.463 112.372 325.917 109.688L329.188 110.243C328.735 112.922 284.347 381.214 329.189 650.455L325.916 651Z" fill="#3F3D56"/>
<path d="M413.059 228.937L311.423 283.337L312.989 286.266L414.624 231.865L413.059 228.937Z" fill="#3F3D56"/>
<path d="M205.725 256.189L204.159 259.117L305.78 313.544L307.346 310.616L205.725 256.189Z" fill="#3F3D56"/>
<path d="M1256.97 594.736C1280.16 594.736 1298.96 556.349 1298.96 508.995C1298.96 461.642 1280.16 423.255 1256.97 423.255C1233.78 423.255 1214.98 461.642 1214.98 508.995C1214.98 556.349 1233.78 594.736 1256.97 594.736Z" fill="#3F3D56"/>
<path d="M1253.09 649.34C1269.91 548.362 1253.26 447.75 1253.09 446.746L1249.82 447.301C1249.99 448.3 1266.54 548.383 1249.82 648.795L1253.09 649.34Z" fill="#5AA9E6"/>
<path d="M1220 490.559L1218.43 493.487L1256.41 513.812L1257.97 510.884L1220 490.559Z" fill="#5AA9E6"/>
<path d="M1296.48 500.74L1258.52 521.076L1260.08 524.004L1298.05 503.668L1296.48 500.74Z" fill="#5AA9E6"/>
<path d="M1357.87 544.463C1403.23 544.463 1440 469.381 1440 376.764C1440 284.146 1403.23 209.064 1357.87 209.064C1312.51 209.064 1275.73 284.146 1275.73 376.764C1275.73 469.381 1312.51 544.463 1357.87 544.463Z" fill="#5AA9E6"/>
<path d="M1348.72 651C1381.57 453.761 1349.05 257.24 1348.72 255.278L1345.45 255.832C1345.78 257.79 1378.2 453.782 1345.45 650.455L1348.72 651Z" fill="#3F3D56"/>
<path d="M1284.81 342.102L1283.24 345.03L1357.51 384.784L1359.08 381.856L1284.81 342.102Z" fill="#3F3D56"/>
<path d="M1435.9 362.016L1361.64 401.791L1363.2 404.719L1437.46 364.944L1435.9 362.016Z" fill="#3F3D56"/>
<path d="M1163.34 505.313C1225.41 505.313 1275.73 402.57 1275.73 275.83C1275.73 149.09 1225.41 46.3464 1163.34 46.3464C1101.27 46.3464 1050.95 149.09 1050.95 275.83C1050.95 402.57 1101.27 505.313 1163.34 505.313Z" fill="#5AA9E6"/>
<path d="M1150.22 651C1195.16 381.193 1150.67 112.372 1150.22 109.688L1146.95 110.243C1147.4 112.922 1191.79 381.214 1146.95 650.455L1150.22 651Z" fill="#3F3D56"/>
<path d="M1063.08 228.937L1061.51 231.865L1163.15 286.265L1164.71 283.337L1063.08 228.937Z" fill="#3F3D56"/>
<path d="M1270.41 256.189L1168.79 310.616L1170.36 313.544L1271.98 259.117L1270.41 256.189Z" fill="#3F3D56"/>
<path d="M850.85 146.524L864.135 135.892C853.815 134.752 849.574 140.385 847.839 144.843C839.776 141.492 830.999 145.883 830.999 145.883L857.579 155.539C856.238 151.955 853.904 148.828 850.85 146.524Z" fill="#3F3D56"/>
<path d="M526.156 52.6595L539.44 42.0271C529.12 40.8877 524.88 46.52 523.144 50.978C515.082 47.6277 506.305 52.0184 506.305 52.0184L532.885 61.6745C531.544 58.0904 529.21 54.9632 526.156 52.6595Z" fill="#3F3D56"/>
<path d="M1055.77 10.7813L1069.05 0.148901C1058.73 -0.990473 1054.49 4.6418 1052.76 9.09979C1044.69 5.74954 1035.92 10.1402 1035.92 10.1402L1062.5 19.7963C1061.16 16.2123 1058.82 13.085 1055.77 10.7813Z" fill="#3F3D56"/>
<path d="M1082.59 631.135C1079.06 631.135 1075.59 632.066 1072.53 633.835C1069.43 631.026 1065.58 629.179 1061.44 628.518C1057.31 627.857 1053.07 628.411 1049.25 630.113C1045.42 631.815 1042.17 634.592 1039.9 638.105C1037.62 641.619 1036.41 645.719 1036.41 649.908H1102.72C1102.36 644.812 1100.08 640.042 1096.35 636.558C1092.61 633.075 1087.7 631.137 1082.59 631.135Z" fill="#3F3D56"/>
<path d="M408.669 631.135C405.138 631.135 401.668 632.066 398.611 633.835C395.507 631.026 391.654 629.179 387.52 628.518C383.387 627.857 379.151 628.411 375.326 630.113C371.501 631.815 368.252 634.592 365.974 638.105C363.695 641.619 362.485 645.719 362.49 649.908H428.799C428.438 644.812 426.16 640.042 422.425 636.558C418.69 633.075 413.775 631.137 408.669 631.135Z" fill="#3F3D56"/>
<path d="M753.567 631.135C750.035 631.135 746.566 632.066 743.509 633.835C740.404 631.026 736.551 629.179 732.418 628.518C728.284 627.857 724.048 628.411 720.223 630.113C716.399 631.815 713.15 634.592 710.871 638.105C708.593 641.619 707.383 645.719 707.388 649.908H773.697C773.335 644.812 771.058 640.042 767.323 636.558C763.588 633.075 758.672 631.137 753.567 631.135Z" fill="#3F3D56"/>
<path d="M680.789 583.735H489.482V589.91H519.318V648.577H525.488V589.91H641.696V648.577H647.868V589.91H680.789V583.735Z" fill="#3F3D56"/>
<path d="M681.166 565.26H489.858V571.435H681.166V565.26Z" fill="#3F3D56"/>
<path d="M681.166 549.821H489.858V555.996H681.166V549.821Z" fill="#3F3D56"/>
<path d="M681.166 534.382H489.858V540.558H681.166V534.382Z" fill="#3F3D56"/>
<path d="M979.508 583.735H788.201V589.91H818.037V648.577H824.207V589.91H940.415V648.577H946.587V589.91H979.508V583.735Z" fill="#3F3D56"/>
<path d="M979.885 565.26H788.578V571.435H979.885V565.26Z" fill="#3F3D56"/>
<path d="M979.885 549.821H788.578V555.996H979.885V549.821Z" fill="#3F3D56"/>
<path d="M979.885 534.382H788.578V540.558H979.885V534.382Z" fill="#3F3D56"/>
</g>
<defs>
<clipPath id="clip0">
<rect width="1440" height="651" fill="white"/>
</clipPath>
</defs>
</svg>
