<svg width="582" height="551" viewBox="0 0 582 551" fill="none" xmlns="http://www.w3.org/2000/svg">
<g clip-path="url(#clip0)">
<path d="M210.319 105.052C210.332 121.986 206.242 138.672 198.397 153.684C190.553 168.696 179.188 181.588 165.273 191.259C161.354 193.999 157.249 196.465 152.989 198.639C151.575 199.364 150.152 200.052 148.702 200.704C147.396 201.302 146.082 201.863 144.749 202.398C128.22 209.084 110.265 211.476 92.5594 209.353C89.4953 208.991 86.4704 208.493 83.4846 207.859C83.3581 207.832 83.2217 207.804 83.0951 207.777C76.8425 206.456 70.7269 204.555 64.8279 202.099C47.2417 194.806 31.9673 182.881 20.6345 167.595C9.30167 152.309 2.33564 134.236 0.479619 115.305C-1.37641 96.3732 1.94723 77.2937 10.0959 60.1016C18.2446 42.9096 30.9126 28.2501 46.7482 17.6873C62.5839 7.12447 80.993 1.05464 100.012 0.125449C119.03 -0.803746 137.944 3.44255 154.736 12.4113C171.528 21.38 185.567 34.7346 195.356 51.0503C205.146 67.3659 210.317 86.0304 210.319 105.052Z" fill="#F9F9F9"/>
<path d="M124.523 85.4456C124.432 85.3369 124.332 85.2373 124.233 85.1377C118.614 79.4703 110.984 76.2459 103 76.1645C95.016 76.0831 87.3221 79.1513 81.5889 84.703C81.5256 84.7573 81.4711 84.8116 81.4167 84.866C81.3441 84.9294 81.2808 84.9927 81.217 85.0562C78.3936 87.8697 76.1539 91.2123 74.6263 94.8923C73.0987 98.5724 72.3132 102.517 72.3149 106.501V125.519C72.3166 126.6 72.7469 127.635 73.5116 128.399C74.2763 129.163 75.3129 129.593 76.3944 129.595H128.974C130.055 129.593 131.092 129.163 131.857 128.399C132.621 127.635 133.052 126.6 133.053 125.519V106.501C133.061 98.6412 130.001 91.0878 124.523 85.4456Z" fill="#2F2E41"/>
<path d="M103.903 129.406C116.2 129.406 126.168 119.448 126.168 107.163C126.168 94.8787 116.2 84.9202 103.903 84.9202C91.6056 84.9202 81.637 94.8787 81.637 107.163C81.637 119.448 91.6056 129.406 103.903 129.406Z" fill="#FFB7B7"/>
<path d="M127.306 105.27L124.677 86.9217C124.596 86.3585 124.308 85.8454 123.87 85.4818C123.722 85.3634 123.561 85.2631 123.389 85.1829C109.927 78.8888 96.275 78.8888 82.8127 85.1648C82.633 85.2478 82.4652 85.3544 82.3138 85.4818C82.2598 85.5271 82.2054 85.5814 82.151 85.6357C81.7911 86.0071 81.5675 86.4889 81.5162 87.0032L79.7576 105.378C79.7279 105.693 79.7642 106.009 79.8641 106.309C79.9641 106.608 80.1254 106.884 80.3379 107.117C80.6803 107.494 81.1406 107.743 81.6433 107.824C81.7654 107.849 81.8901 107.862 82.0151 107.86H86.4752C86.9064 107.858 87.3284 107.735 87.6925 107.504C88.0566 107.274 88.348 106.945 88.533 106.556L90.4639 102.426C90.5874 102.158 90.7951 101.938 91.0553 101.799C91.3155 101.66 91.6141 101.61 91.9055 101.656C92.1969 101.702 92.4653 101.842 92.6698 102.055C92.8743 102.267 93.0037 102.541 93.0383 102.834L93.419 105.876C93.4896 106.423 93.7566 106.925 94.1702 107.29C94.5838 107.655 95.1159 107.857 95.6676 107.86H125.067C125.451 107.862 125.83 107.762 126.163 107.57C126.396 107.444 126.604 107.278 126.78 107.081C126.993 106.834 127.149 106.545 127.24 106.232C127.331 105.92 127.353 105.592 127.306 105.27Z" fill="#2F2E41"/>
<path d="M158.962 170.158L165.272 191.259C161.352 193.999 157.248 196.465 152.988 198.639C151.574 199.364 150.15 200.052 148.7 200.704L142.164 172.711L139.626 161.853L155.943 160.042L158.962 170.158Z" fill="#FFB7B7"/>
<path d="M83.8733 166.653L83.3293 195.162L83.0938 207.777C76.8412 206.456 70.7257 204.555 64.8267 202.099L66.9934 175.093L67.5375 168.283L83.8733 166.653Z" fill="#FFB7B7"/>
<path d="M158.962 170.158L142.572 172.612L142.772 175.302L144.748 202.398C128.219 209.084 110.263 211.476 92.5581 209.353C89.4941 208.991 86.4692 208.493 83.4834 207.859C84.8251 202.226 85.9857 197.154 84.5532 196.158C84.1216 195.856 83.7126 195.523 83.3293 195.162C76.648 188.795 79.114 174.423 79.114 174.423L66.9934 175.093L62.7963 175.329C62.7963 175.329 64.6093 146.349 72.7682 146.349H82.7402L130.787 141.821C130.787 141.821 144.385 137.292 148.011 143.632C149.915 146.955 153.305 154.001 156.107 159.96C158.645 165.376 160.703 169.895 160.703 169.895L158.962 170.158Z" fill="#2F2E41"/>
<path d="M581.994 106.209C581.824 122.798 577.719 139.109 570.016 153.805C562.312 168.501 551.23 181.163 537.679 190.751C537.444 190.914 537.199 191.087 536.954 191.259C536.7 191.44 536.438 191.621 536.175 191.793C534.651 192.843 533.098 193.849 531.515 194.809C529.285 196.167 527.003 197.444 524.67 198.639C524.598 198.676 524.516 198.712 524.444 198.748C523.102 199.436 521.749 200.088 520.383 200.704C520.337 200.722 520.301 200.741 520.256 200.759C519.938 200.904 519.603 201.057 519.277 201.193C516.747 202.316 514.163 203.34 511.535 204.245C509.295 205.033 507.023 205.74 504.717 206.364C500.002 207.664 495.201 208.626 490.349 209.244C486.211 209.776 482.046 210.06 477.875 210.096C477.53 210.105 477.186 210.105 476.841 210.105C474.566 210.105 472.3 210.032 470.06 209.887C468.102 209.761 466.162 209.589 464.24 209.353C461.276 209 458.348 208.529 455.465 207.913C455.338 207.895 455.211 207.868 455.084 207.841C454.985 207.823 454.876 207.795 454.776 207.777C451.875 207.17 449.02 206.428 446.218 205.577C443.58 204.78 440.99 203.88 438.449 202.878C437.797 202.624 437.153 202.371 436.509 202.099C434.905 201.429 433.318 200.732 431.759 199.98C431.306 199.772 430.862 199.554 430.417 199.337C428.912 198.603 427.426 197.834 425.975 197.018C424.225 196.049 422.506 195.032 420.817 193.966C418.687 192.626 416.601 191.213 414.58 189.719C396.619 176.536 383.314 157.993 376.587 136.767C369.86 115.54 370.057 92.7267 377.151 71.6193C384.245 50.5119 397.868 32.2018 416.055 19.3311C434.241 6.4604 456.051 -0.305246 478.337 0.010444C536 0.810608 582.616 48.6024 581.994 106.209Z" fill="#F9F9F9"/>
<path d="M454.776 207.777C451.875 207.17 449.019 206.428 446.218 205.577L455.837 145.996L465.799 145.688L483.867 145.117L493.132 144.827C493.132 144.827 499.704 173.68 504.717 206.364C500.002 207.664 495.2 208.626 490.349 209.244C486.211 209.776 482.046 210.06 477.875 210.096C477.53 210.105 477.186 210.105 476.841 210.105C474.566 210.105 472.3 210.032 470.06 209.887C468.102 209.761 466.162 209.588 464.24 209.353C461.276 209 458.348 208.529 455.465 207.913C455.338 207.895 455.211 207.868 455.084 207.841C454.985 207.822 454.876 207.795 454.776 207.777Z" fill="#CBCBCB"/>
<path d="M455.465 207.913C455.338 207.895 455.211 207.868 455.084 207.841C454.985 207.823 454.876 207.795 454.776 207.777C451.875 207.17 449.02 206.428 446.218 205.577C443.58 204.78 440.99 203.88 438.449 202.878C437.797 202.624 437.153 202.371 436.509 202.099C434.905 201.429 433.318 200.731 431.759 199.98C431.306 199.772 430.862 199.554 430.417 199.337L429.62 154.726L454.096 144.248C454.096 144.248 454.178 144.9 465.799 145.688C468.011 152.896 455.465 207.913 455.465 207.913Z" fill="#2F2E41"/>
<path d="M528.623 152.616L524.009 176.841L524.444 198.748C523.102 199.436 521.749 200.088 520.383 200.704C520.337 200.722 520.301 200.741 520.256 200.759C519.938 200.904 519.603 201.057 519.277 201.193C516.747 202.316 514.164 203.34 511.535 204.245C509.295 205.033 507.023 205.74 504.718 206.364C500.002 207.664 495.201 208.626 490.349 209.244C486.212 209.776 482.046 210.06 477.875 210.096L477.394 171.272C476.379 158.756 479.742 150.478 483.867 145.117C505.851 142.183 505.361 141.92 505.361 141.92L528.668 152.398L528.623 152.616Z" fill="#2F2E41"/>
<path d="M440.108 158.222L438.449 202.878C437.797 202.624 437.153 202.371 436.509 202.099C434.905 201.429 433.318 200.731 431.759 199.98C431.306 199.772 430.862 199.554 430.417 199.337C428.912 198.603 427.426 197.834 425.975 197.018C424.225 196.049 422.506 195.032 420.817 193.966L429.62 154.726L440.108 158.222Z" fill="#2F2E41"/>
<path d="M537.679 190.751C537.444 190.914 537.199 191.087 536.954 191.259C536.7 191.44 536.438 191.621 536.175 191.793C534.651 192.843 533.098 193.849 531.515 194.809C529.285 196.167 527.003 197.444 524.67 198.639C524.598 198.676 524.516 198.712 524.444 198.748C523.062 199.457 521.666 200.128 520.258 200.76L520.256 200.759L518.597 155.948L528.623 152.616L529.085 152.462L537.679 190.751Z" fill="#2F2E41"/>
<path d="M501.862 111.147C505.891 97.4188 498.046 83.0355 484.339 79.0211C470.632 75.0066 456.255 82.8811 452.226 96.6092C448.197 110.337 456.042 124.721 469.749 128.735C483.456 132.75 497.833 124.875 501.862 111.147Z" fill="#9F616A"/>
<path d="M450.997 110.373V100.292C450.997 100.292 442.86 90.7175 451.811 88.3057C451.811 88.3057 454.253 64.1873 475.411 75.4425C475.411 75.4425 504.707 70.6188 501.452 87.5017C501.452 87.5017 508.776 83.0941 506.334 94.3494L501.613 112.48C501.613 112.48 503.893 100.503 496.569 98.8954L492.5 96.4835C492.5 96.4835 481.107 107.739 464.018 94.0717C464.018 94.0717 456.694 92.3254 457.508 99.5609C458.321 106.796 450.997 110.373 450.997 110.373Z" fill="#2F2E41"/>
<path d="M396.159 422.021C396.172 438.955 392.081 455.64 384.237 470.652C376.393 485.664 365.028 498.556 351.113 508.227C350.859 508.408 350.596 508.589 350.333 508.761C348.81 509.812 347.257 510.817 345.674 511.777C343.444 513.135 341.162 514.412 338.829 515.608C337.415 516.332 335.992 517.02 334.542 517.673C334.179 517.836 333.807 518.008 333.435 518.162C330.906 519.285 328.322 520.308 325.693 521.214C318.827 523.619 311.726 525.295 304.507 526.213C300.028 526.788 295.516 527.075 291 527.073C288.725 527.073 286.459 527 284.219 526.856C282.261 526.729 280.321 526.557 278.399 526.321C275.308 525.95 272.253 525.452 269.243 524.809C269.143 524.791 269.035 524.764 268.935 524.745C262.682 523.424 256.567 521.523 250.668 519.067C249.064 518.397 247.477 517.7 245.918 516.948C243.951 516.024 242.023 515.037 240.134 513.987C223.902 505.028 210.331 491.941 200.795 476.052C191.259 460.163 186.098 442.038 185.836 423.515C185.574 404.991 190.219 386.728 199.301 370.576C208.383 354.424 221.578 340.959 237.55 331.544C253.521 322.13 271.701 317.103 290.244 316.971C308.788 316.839 327.037 321.608 343.141 330.794C359.245 339.98 372.631 353.257 381.942 369.278C391.253 385.299 396.158 403.495 396.159 422.021Z" fill="#F9F9F9"/>
<path d="M288.111 447.911C301.08 447.911 311.593 437.408 311.593 424.453C311.593 411.497 301.08 400.994 288.111 400.994C275.143 400.994 264.629 411.497 264.629 424.453C264.629 437.408 275.143 447.911 288.111 447.911Z" fill="#FFB8B8"/>
<path d="M278.399 526.321C275.308 525.95 272.253 525.452 269.243 524.809L272.099 460.618L272.507 460.193L278.354 454.025H296.947L303.809 460.664L304.39 461.234L319.067 475.28L325.693 521.214C318.827 523.619 311.726 525.295 304.507 526.213C300.028 526.788 295.516 527.075 291 527.073C288.725 527.073 286.458 527 284.219 526.856C282.261 526.729 280.321 526.557 278.399 526.321Z" fill="#CBCBCB"/>
<path d="M245.918 516.948C243.951 516.024 242.023 515.037 240.134 513.987C239.944 496.599 239.817 485.052 239.817 485.052L242.029 483.703C242.055 483.689 242.082 483.677 242.11 483.666L267.212 468.434L272.479 459.885L272.507 460.193L274.057 478.215C278.725 494.135 282.123 510.399 284.219 526.856C282.261 526.729 280.321 526.557 278.399 526.321C275.308 525.95 272.253 525.452 269.243 524.809C269.144 524.791 269.035 524.764 268.935 524.745C262.682 523.424 256.567 521.523 250.668 519.067C249.064 518.397 247.477 517.7 245.918 516.948Z" fill="#2F2E41"/>
<path d="M325.693 521.214C318.827 523.619 311.726 525.295 304.507 526.213C303.507 520.367 303.139 514.432 303.41 508.508C305.369 477.236 300.854 459.885 302.812 459.885L303.809 460.664L316.13 470.39L332.347 476.331H332.357L343.516 480.415L345.483 481.14V482.073C345.492 485.297 345.51 496.581 345.674 511.777C343.444 513.135 341.162 514.412 338.829 515.608C337.415 516.332 335.992 517.021 334.541 517.673C334.179 517.836 333.807 518.008 333.435 518.162C330.906 519.285 328.322 520.308 325.693 521.214Z" fill="#2F2E41"/>
<path d="M265.896 431.792C265.896 431.792 267.891 428.292 267.427 416.599C266.963 404.906 284.787 411.519 299.681 410.404C314.574 409.288 311.421 429.926 311.421 429.926C311.421 429.926 312.496 428.699 314.796 418.739C317.097 408.779 311.874 398.853 311.874 398.853C310.335 388.387 302.045 391.741 302.045 391.741C306.037 393.294 305.27 396.614 305.27 396.614C301.891 390.695 293.6 394.049 293.6 394.049C282.543 387.117 271.337 396.245 271.337 396.245C257.979 399.274 265.813 409.886 265.813 409.886C252.38 416.668 265.896 431.792 265.896 431.792Z" fill="#2F2E41"/>
<path d="M228.739 506.687C229.083 498.727 229.237 493.592 229.056 492.877C228.122 489.145 240.868 484.146 242.029 483.703C242.055 483.689 242.082 483.677 242.11 483.666L244.703 485.052L245.918 516.948C243.951 516.024 242.023 515.037 240.134 513.987C236.182 511.802 232.375 509.364 228.739 506.687Z" fill="#2F2E41"/>
<path d="M345.674 511.777C343.444 513.135 341.162 514.412 338.829 515.608C337.415 516.332 335.992 517.02 334.542 517.673C334.179 517.836 333.807 518.008 333.435 518.162L329.356 477.925L331.74 476.186C331.74 476.186 331.958 476.24 332.347 476.331H332.357C334.269 476.802 340.144 478.359 343.516 480.415C344.269 480.841 344.936 481.403 345.483 482.072C345.817 482.472 345.982 482.985 345.946 483.503C345.837 484.554 347.65 494.516 350.333 508.761C348.81 509.812 347.257 510.817 345.674 511.777Z" fill="#2F2E41"/>
<path d="M143.248 443.423H104.252V268.778H106.065V441.612H143.248V443.423Z" fill="#FFD60A"/>
<path d="M477.755 443.423H438.759V441.612H475.942V267.159H477.755V443.423Z" fill="#FFD60A"/>
<path d="M476.841 230.352C490.077 230.352 500.807 219.633 500.807 206.411C500.807 193.188 490.077 182.469 476.841 182.469C463.605 182.469 452.876 193.188 452.876 206.411C452.876 219.633 463.605 230.352 476.841 230.352Z" fill="#FF6392"/>
<path d="M474.558 216.517L467.384 207.304L471.556 204.062L474.952 208.425L486.426 196.326L490.263 199.956L474.558 216.517Z" fill="white"/>
<path d="M105.159 232.22C118.395 232.22 129.125 221.502 129.125 208.279C129.125 195.057 118.395 184.338 105.159 184.338C91.923 184.338 81.1932 195.057 81.1932 208.279C81.1932 221.502 91.923 232.22 105.159 232.22Z" fill="#FF6392"/>
<path d="M102.875 218.386L95.7018 209.172L99.8737 205.931L103.27 210.293L114.744 198.194L118.58 201.825L102.875 218.386Z" fill="white"/>
<path d="M291 551C304.236 551 314.966 540.281 314.966 527.059C314.966 513.836 304.236 503.117 291 503.117C277.764 503.117 267.034 513.836 267.034 527.059C267.034 540.281 277.764 551 291 551Z" fill="#FF6392"/>
<path d="M288.716 537.165L281.543 527.951L285.715 524.71L289.111 529.072L300.585 516.973L304.421 520.604L288.716 537.165Z" fill="white"/>
</g>
<defs>
<clipPath id="clip0">
<rect width="582" height="551" fill="white"/>
</clipPath>
</defs>
</svg>
