<svg width="286" height="193" viewBox="0 0 286 193" fill="none" xmlns="http://www.w3.org/2000/svg">
<path d="M285.917 191H17V192.436H285.917V191Z" fill="#C8C8C8"/>
<path d="M149.159 188.052C177.675 188.052 200.791 164.915 200.791 136.374C200.791 107.833 177.675 84.6953 149.159 84.6953C120.644 84.6953 97.5272 107.833 97.5272 136.374C97.5272 164.915 120.644 188.052 149.159 188.052Z" fill="#FFE45E"/>
<path d="M126.616 61.3761C131.066 77.8412 146.309 88.0385 146.309 88.0385C146.309 88.0385 154.336 71.5405 149.886 55.0754C145.436 38.6103 130.193 28.413 130.193 28.413C130.193 28.413 122.166 44.911 126.616 61.3761Z" fill="#3F3D56"/>
<path d="M133.155 57.8376C145.366 69.7354 146.858 88.0251 146.858 88.0251C146.858 88.0251 128.551 87.0246 116.34 75.1268C104.129 63.229 102.637 44.9393 102.637 44.9393C102.637 44.9393 120.944 45.9398 133.155 57.8376Z" fill="#FFE45E"/>
<path d="M152.927 55.5366C144.726 70.4883 148.643 88.4151 148.643 88.4151C148.643 88.4151 165.857 82.1004 174.059 67.1486C182.26 52.1969 178.343 34.2701 178.343 34.2701C178.343 34.2701 161.129 40.5849 152.927 55.5366Z" fill="#3F3D56"/>
<path d="M160.09 57.5259C160.645 74.5738 149.048 88.7866 149.048 88.7866C149.048 88.7866 136.551 75.3592 135.996 58.3112C135.442 41.2632 147.039 27.0505 147.039 27.0505C147.039 27.0505 159.536 40.478 160.09 57.5259Z" fill="#FFE45E"/>
<path d="M147.008 157.189C161.662 157.189 173.541 145.299 173.541 130.632C173.541 115.965 161.662 104.075 147.008 104.075C132.354 104.075 120.475 115.965 120.475 130.632C120.475 145.299 132.354 157.189 147.008 157.189Z" fill="#F2F2F2"/>
<path d="M155.613 126.325C160.366 126.325 164.219 122.469 164.219 117.712C164.219 112.955 160.366 109.099 155.613 109.099C150.861 109.099 147.008 112.955 147.008 117.712C147.008 122.469 150.861 126.325 155.613 126.325Z" fill="#3F3D56"/>
<path d="M68.7629 188.382L67.4883 187.723C84.0407 155.694 75.1896 114.099 64.8503 84.8453C57.8296 65.1827 48.8748 46.2666 38.1179 28.3759L39.3301 27.6091C50.1429 45.5908 59.1444 64.603 66.2019 84.3659C76.6364 113.887 85.5499 155.897 68.7629 188.382Z" fill="#2F2E41"/>
<path d="M81.0357 27.8648L71.7316 78.8287L73.142 79.0867L82.4461 28.1227L81.0357 27.8648Z" fill="#2F2E41"/>
<path d="M19.1702 71.2866L18.1199 72.2648L66.1662 123.943L67.2165 122.965L19.1702 71.2866Z" fill="#2F2E41"/>
<path d="M105.546 128.054L81.1752 161.797L82.3377 162.638L106.708 128.895L105.546 128.054Z" fill="#2F2E41"/>
<path d="M85.3363 14.3551C89.2968 14.3551 92.5074 11.1416 92.5074 7.17757C92.5074 3.21351 89.2968 0 85.3363 0C81.3758 0 78.1652 3.21351 78.1652 7.17757C78.1652 11.1416 81.3758 14.3551 85.3363 14.3551Z" fill="#FFE45E"/>
<path d="M7.17112 69.6225C11.1316 69.6225 14.3422 66.409 14.3422 62.4449C14.3422 58.4808 11.1316 55.2673 7.17112 55.2673C3.21062 55.2673 0 58.4808 0 62.4449C0 66.409 3.21062 69.6225 7.17112 69.6225Z" fill="#3F3D56"/>
<path d="M38.7241 76.8C42.6846 76.8 45.8952 73.5865 45.8952 69.6224C45.8952 65.6583 42.6846 62.4448 38.7241 62.4448C34.7636 62.4448 31.553 65.6583 31.553 69.6224C31.553 73.5865 34.7636 76.8 38.7241 76.8Z" fill="#3F3D56"/>
<path d="M24.3818 104.793C28.3423 104.793 31.5529 101.579 31.5529 97.6149C31.5529 93.6509 28.3423 90.4374 24.3818 90.4374C20.4213 90.4374 17.2107 93.6509 17.2107 97.6149C17.2107 101.579 20.4213 104.793 24.3818 104.793Z" fill="#FFE45E"/>
<path d="M114.021 122.736C117.981 122.736 121.192 119.523 121.192 115.559C121.192 111.595 117.981 108.381 114.021 108.381C110.06 108.381 106.85 111.595 106.85 115.559C106.85 119.523 110.06 122.736 114.021 122.736Z" fill="#3F3D56"/>
<path d="M90.3562 130.632C94.3167 130.632 97.5273 127.418 97.5273 123.454C97.5273 119.49 94.3167 116.277 90.3562 116.277C86.3957 116.277 83.1851 119.49 83.1851 123.454C83.1851 127.418 86.3957 130.632 90.3562 130.632Z" fill="#3F3D56"/>
<path d="M106.85 153.6C110.81 153.6 114.021 150.386 114.021 146.422C114.021 142.458 110.81 139.245 106.85 139.245C102.889 139.245 99.6785 142.458 99.6785 146.422C99.6785 150.386 102.889 153.6 106.85 153.6Z" fill="#3F3D56"/>
<path d="M31.553 22.9682C35.5135 22.9682 38.7241 19.7547 38.7241 15.7906C38.7241 11.8265 35.5135 8.61304 31.553 8.61304C27.5925 8.61304 24.3818 11.8265 24.3818 15.7906C24.3818 19.7547 27.5925 22.9682 31.553 22.9682Z" fill="#3F3D56"/>
</svg>
