<svg width="690" height="566" viewBox="0 0 690 566" fill="none" xmlns="http://www.w3.org/2000/svg">
<g clip-path="url(#clip0)">
<path d="M158.186 114.445L161.124 356.989L288.046 418.869L285.109 176.326L158.186 114.445Z" fill="#E5E7EB"/>
<path d="M119.618 95.0698L24.7784 289.942L153.462 352.682L150.525 110.138L119.618 95.0698Z" fill="#E5E7EB"/>
<path d="M690 368.832L433.853 243.948L436.79 486.492L595.161 563.705L690 368.832Z" fill="#E5E7EB"/>
<path d="M296.582 176.326L299.52 418.869L426.441 480.749L423.504 238.206L296.582 176.326Z" fill="#E5E7EB"/>
<path d="M583.059 186.657L567.121 187.275L567.916 207.786L583.854 207.167L583.059 186.657Z" fill="#6C63FF"/>
<path d="M511.162 258.489C511.162 258.489 489.09 247.934 489.443 257.05C489.797 266.165 511.692 272.163 511.692 272.163L511.162 258.489Z" fill="#FFB9B9"/>
<path d="M523.272 335.619C523.272 335.619 512.858 361.13 509.011 379.538C505.164 397.946 499.304 423.28 506.841 441.246C514.378 459.213 535.807 512.017 536.027 517.714C536.248 523.411 534.192 529.197 538.746 529.02C543.3 528.844 568.08 521.035 569.086 517.572C570.092 514.109 560.632 505.347 560.632 505.347L537.27 432.077L561.644 384.342L579.225 455.554L582.669 544.433C582.669 544.433 599.569 539.213 602.022 543.682C602.022 543.682 609.594 533.118 610.556 528.515C611.518 523.913 606.98 436.218 606.98 436.218C606.98 436.218 622.493 336.333 609.97 336.819C597.447 337.305 548.396 307.256 523.272 335.619Z" fill="#2F2E41"/>
<path d="M538.569 524.462C538.569 524.462 527.017 550.017 525.923 551.2C524.829 552.384 517.301 564.088 522.993 563.867C528.686 563.646 542.126 557.419 552.019 547.905C561.912 538.392 574.955 521.909 573.773 520.814C572.59 519.718 564.488 516.609 564.488 516.609L538.569 524.462Z" fill="#2F2E41"/>
<path d="M584.725 538.648C584.725 538.648 584.028 550.086 581.928 554.733C579.827 559.379 580.092 566.216 585.785 565.995C591.477 565.774 606.188 562.92 606.188 562.92C606.188 562.92 607.062 556.039 605.879 554.944C604.697 553.849 599.657 541.491 601.802 537.985C603.946 534.478 584.725 538.648 584.725 538.648Z" fill="#2F2E41"/>
<path d="M593.146 167.436C593.146 167.436 605.281 186.365 610.012 190.746C614.742 195.127 601.434 204.773 601.434 204.773L577.615 207.98C577.615 207.98 577.914 186.286 576.688 184.051C575.461 181.816 593.146 167.436 593.146 167.436Z" fill="#FFB9B9"/>
<path d="M572.443 192.204C572.443 192.204 577.35 201.143 581.904 200.966C586.457 200.79 610.012 190.746 611.018 187.283C612.024 183.821 618.82 212.087 618.82 212.087L561.184 313.607L547.125 303.882L553.937 244.276L559.532 212.105L572.443 192.204Z" fill="#F9F9F9"/>
<path d="M613.144 283.06C610.844 287.874 609.409 292.894 609.608 298.033C609.616 298.261 609.625 298.489 609.646 298.716C610.191 309.262 614.073 321.459 615.465 330.329C616.476 336.692 616.188 341.337 612.468 342.428C603.449 345.061 613.783 346.942 578.888 358.567C543.994 370.192 537.904 360.158 537.816 357.879C537.728 355.6 542.758 338.287 541.575 337.191C540.393 336.096 525.028 351.528 520.386 349.426C515.744 347.323 519.856 335.752 519.856 335.752C519.856 335.752 530.314 311.381 530.093 305.684C529.872 299.987 545.934 273.116 545.934 273.116L556.858 201.938C556.858 201.938 561.058 192.646 566.707 191.286C572.355 189.925 577.041 193.167 577.041 193.167L567.589 214.075L557.618 250.98L559.286 264.609C559.286 264.609 570.882 240.194 578.498 230.769C586.114 221.344 602.352 199.032 602.352 199.032C602.352 199.032 606.143 186.229 603.281 182.403C600.418 178.565 615.218 177.991 621.529 193.722C624.873 202.06 630.303 214.494 633.705 226.07C636.736 236.326 638.167 245.913 635.164 251.394C630.575 259.765 619.029 270.77 613.144 283.06Z" fill="#5AA9E6"/>
<path opacity="0.1" d="M635.164 251.394C630.575 259.765 619.029 270.77 613.143 283.06C611.606 277.517 609.731 271.781 609.731 271.781C609.731 271.781 602.537 233.26 623.815 223.305C627.34 222.963 630.866 223.949 633.705 226.07C636.736 236.326 638.167 245.913 635.164 251.394Z" fill="black"/>
<path d="M550.699 248.966L532.66 254.231L507.614 255.203L505.038 276.986L546.198 279.953C546.198 279.953 556.479 251.024 550.699 248.966Z" fill="#5AA9E6"/>
<path d="M580.113 322.206C580.113 322.206 555.981 326.213 561.489 333.482C566.997 340.75 588.375 333.108 588.375 333.108L580.113 322.206Z" fill="#FFB9B9"/>
<path opacity="0.1" d="M609.646 298.716C610.191 309.262 614.073 321.459 615.465 330.329C607.778 337.612 600.467 344.035 597.712 344.142C592.02 344.363 582.868 343.577 579.497 344.849C576.126 346.121 574.149 324.515 574.149 324.515C574.149 324.515 576.161 317.59 585.136 313.818C591.194 311.266 602.806 304.345 609.646 298.716Z" fill="black"/>
<path d="M623.55 216.468C623.55 216.468 642.815 213.438 641.774 245.431C640.734 277.425 643.805 297.847 636.057 303.853C628.308 309.86 603.139 337.084 597.447 337.305C591.755 337.526 582.603 336.74 579.232 338.012C575.861 339.284 573.884 317.678 573.884 317.678C573.884 317.678 575.896 310.753 584.871 306.981C593.846 303.209 614.991 289.836 614.814 285.278C614.638 280.72 609.466 264.944 609.466 264.944C609.466 264.944 602.273 226.423 623.55 216.468Z" fill="#5AA9E6"/>
<path d="M576.158 195.465C590.001 195.465 601.222 184.233 601.222 170.377C601.222 156.522 590.001 145.29 576.158 145.29C562.315 145.29 551.093 156.522 551.093 170.377C551.093 184.233 562.315 195.465 576.158 195.465Z" fill="#FFB9B9"/>
<path d="M559.281 134.42C558.677 134.941 557.953 135.305 557.174 135.479C556.783 135.548 556.38 135.461 556.053 135.234C555.727 135.008 555.503 134.661 555.431 134.27C554.857 135.461 554.21 136.729 553.04 137.34C551.869 137.951 550.058 137.439 549.89 136.128C549.719 137.123 549.279 138.053 548.618 138.815C547.891 139.509 546.574 139.684 545.94 138.905C546.452 141.71 546.136 144.594 546.297 147.44C546.458 150.287 547.216 153.305 549.365 155.177C552.499 157.907 557.211 157.233 561.333 156.716C561.957 156.585 562.603 156.62 563.209 156.818C564.752 157.476 564.682 159.627 564.703 161.306C564.829 164.252 565.994 167.058 567.991 169.226C569.988 171.394 572.688 172.783 575.612 173.147C577.248 173.4 578.918 172.992 580.253 172.013C581.424 171.02 582.022 169.402 583.363 168.656C585.544 167.443 588.19 169.212 589.785 171.134C591.38 173.055 592.952 175.418 595.423 175.77C598.69 176.235 601.179 172.902 602.4 169.832C604.085 165.531 604.892 160.935 604.774 156.316C604.656 151.697 603.615 147.148 601.713 142.938C594.89 128.051 571.581 125.697 559.281 134.42Z" fill="#2F2E41"/>
<path d="M426.642 155.085C455.158 155.085 478.274 131.948 478.274 103.407C478.274 74.8653 455.158 51.728 426.642 51.728C398.126 51.728 375.01 74.8653 375.01 103.407C375.01 131.948 398.126 155.085 426.642 155.085Z" fill="#FFE45E"/>
<path d="M370.47 48.8833C382.366 61.0966 400.64 62.5759 400.64 62.5759C400.64 62.5759 399.627 44.2534 387.731 32.0401C375.835 19.8267 357.561 18.3474 357.561 18.3474C357.561 18.3474 358.574 36.6699 370.47 48.8833Z" fill="#3F3D56"/>
<path d="M374.46 42.6059C390.914 47.0478 401.114 62.2966 401.114 62.2966C401.114 62.2966 384.636 70.3437 368.183 65.9018C351.729 61.4599 341.53 46.2111 341.53 46.2111C341.53 46.2111 358.007 38.164 374.46 42.6059Z" fill="#FFE45E"/>
<path d="M390.612 30.9609C390.721 48.0175 402.862 61.7674 402.862 61.7674C402.862 61.7674 414.827 47.8631 414.718 30.8065C414.609 13.7499 402.467 0 402.467 0C402.467 0 390.503 13.9043 390.612 30.9609Z" fill="#3F3D56"/>
<path d="M397.836 29.208C406.613 43.8286 403.397 61.8945 403.397 61.8945C403.397 61.8945 385.95 56.2557 377.173 41.635C368.396 27.0144 371.612 8.94846 371.612 8.94846C371.612 8.94846 389.059 14.5873 397.836 29.208Z" fill="#FFE45E"/>
<path d="M421.97 125.996C436.624 125.996 448.503 114.106 448.503 99.4393C448.503 84.7723 436.624 72.8823 421.97 72.8823C407.316 72.8823 395.437 84.7723 395.437 99.4393C395.437 114.106 407.316 125.996 421.97 125.996Z" fill="#F2F2F2"/>
<path d="M409.553 116.269C414.305 116.269 418.158 112.413 418.158 107.656C418.158 102.899 414.305 99.0432 409.553 99.0432C404.8 99.0432 400.947 102.899 400.947 107.656C400.947 112.413 404.8 116.269 409.553 116.269Z" fill="#3F3D56"/>
<path d="M672.651 564.094H403.734V565.529H672.651V564.094Z" fill="#C8C8C8"/>
<path d="M492.367 128.651H146.719V336.082H492.367V128.651Z" fill="#F9F9F9"/>
<path d="M160.344 140.135C162.324 140.135 163.929 138.528 163.929 136.546C163.929 134.564 162.324 132.957 160.344 132.957C158.363 132.957 156.758 134.564 156.758 136.546C156.758 138.528 158.363 140.135 160.344 140.135Z" fill="#FF6392"/>
<path d="M173.252 140.135C175.232 140.135 176.837 138.528 176.837 136.546C176.837 134.564 175.232 132.957 173.252 132.957C171.271 132.957 169.666 134.564 169.666 136.546C169.666 138.528 171.271 140.135 173.252 140.135Z" fill="#5AA9E6"/>
<path d="M186.16 140.135C188.14 140.135 189.745 138.528 189.745 136.546C189.745 134.564 188.14 132.957 186.16 132.957C184.179 132.957 182.574 134.564 182.574 136.546C182.574 138.528 184.179 140.135 186.16 140.135Z" fill="#FFE45E"/>
<path d="M492.367 144.572H147.008V146.007H492.367V144.572Z" fill="#2F2E41"/>
<path opacity="0.1" d="M348.227 209.039H305.917V251.387H348.227V209.039Z" fill="black"/>
<path d="M484.157 150H155V332.322H484.157V150Z" fill="#F9F9F9"/>
<path d="M212.587 175.555L190.814 197.056L212.587 218.556L217.486 213.657L201.022 197.191L217.624 180.589L212.587 175.555Z" fill="#FF6392"/>
<path d="M230.427 175.555L252.199 197.056L230.427 218.556L225.528 213.657L241.993 197.191L225.39 180.589L230.427 175.555Z" fill="#FF6392"/>
<path d="M300.852 180.95C299.071 180.95 297.628 181.975 297.628 183.238C297.628 184.501 299.071 185.525 300.852 185.525H452.851C454.632 185.525 456.076 184.501 456.076 183.238C456.076 181.975 454.632 180.95 452.851 180.95H300.852Z" fill="#E6E6E6"/>
<path d="M451.34 306.265H195.64C193.026 306.265 190.908 304.756 190.905 302.897V257.766C190.908 255.907 193.026 254.398 195.64 254.398H451.34C453.954 254.398 456.072 255.907 456.075 257.766V302.896C456.073 304.756 453.954 306.263 451.34 306.265ZM195.64 255.744C194.071 255.744 192.8 256.65 192.799 257.765V302.895C192.799 304.011 194.071 304.915 195.64 304.916H451.34C452.908 304.916 454.179 304.011 454.181 302.895V257.766C454.181 256.651 452.908 255.746 451.34 255.745L195.64 255.744Z" fill="#E6E6E6"/>
<path d="M221.971 291.752C228.289 291.752 233.411 286.63 233.411 280.312C233.411 273.994 228.289 268.872 221.971 268.872C215.653 268.872 210.531 273.994 210.531 280.312C210.531 286.63 215.653 291.752 221.971 291.752Z" fill="#E6E6E6"/>
<path d="M254.236 271.163C253.63 271.162 253.047 271.402 252.618 271.831C252.188 272.259 251.947 272.841 251.946 273.447C251.945 274.054 252.185 274.636 252.614 275.066C253.042 275.495 253.624 275.737 254.23 275.738H362.069C362.676 275.738 363.258 275.497 363.687 275.068C364.116 274.639 364.357 274.057 364.357 273.45C364.357 272.844 364.116 272.262 363.687 271.833C363.258 271.404 362.676 271.163 362.069 271.163H254.236Z" fill="#5AA9E6"/>
<path d="M254.236 284.887C253.936 284.887 253.638 284.946 253.361 285.06C253.083 285.175 252.831 285.343 252.618 285.555C252.188 285.984 251.947 286.565 251.946 287.172C251.945 287.778 252.185 288.36 252.614 288.79C253.042 289.219 253.624 289.461 254.23 289.462H300.636C301.243 289.463 301.825 289.222 302.255 288.794C302.684 288.366 302.926 287.784 302.927 287.178C302.927 286.571 302.687 285.989 302.259 285.559C301.83 285.13 301.249 284.888 300.642 284.887H254.236Z" fill="#5AA9E6"/>
<path d="M299.742 194.654C299.167 194.7 298.631 194.961 298.24 195.385C297.849 195.809 297.632 196.364 297.632 196.941C297.632 197.518 297.849 198.073 298.24 198.497C298.631 198.921 299.167 199.182 299.742 199.228H399.359C399.933 199.182 400.47 198.921 400.861 198.497C401.252 198.073 401.469 197.518 401.469 196.941C401.469 196.364 401.252 195.809 400.861 195.385C400.47 194.961 399.933 194.7 399.359 194.654H299.742Z" fill="#E6E6E6"/>
<path d="M300.398 208.357C298.868 208.357 297.628 209.381 297.628 210.644C297.628 211.907 298.868 212.931 300.398 212.931H430.978C432.507 212.931 433.747 211.907 433.747 210.644C433.747 209.381 432.507 208.357 430.978 208.357H300.398Z" fill="#E6E6E6"/>
</g>
<defs>
<clipPath id="clip0">
<rect width="690" height="566" fill="white"/>
</clipPath>
</defs>
</svg>
