<svg width="239" height="192" viewBox="0 0 239 192" fill="none" xmlns="http://www.w3.org/2000/svg">
<path d="M239 191H2V192H239V191Z" fill="#C8C8C8"/>
<path d="M127.159 188.052C155.675 188.052 178.791 164.915 178.791 136.374C178.791 107.833 155.675 84.6953 127.159 84.6953C98.6438 84.6953 75.5273 107.833 75.5273 136.374C75.5273 164.915 98.6438 188.052 127.159 188.052Z" fill="#FFE45E"/>
<path d="M104.616 61.3762C109.066 77.8413 124.309 88.0386 124.309 88.0386C124.309 88.0386 132.336 71.5406 127.886 55.0755C123.436 38.6103 108.193 28.4131 108.193 28.4131C108.193 28.4131 100.166 44.911 104.616 61.3762Z" fill="#3F3D56"/>
<path d="M111.155 57.8376C123.366 69.7354 124.858 88.0251 124.858 88.0251C124.858 88.0251 106.551 87.0246 94.3399 75.1268C82.1287 63.229 80.6372 44.9393 80.6372 44.9393C80.6372 44.9393 98.944 45.9398 111.155 57.8376Z" fill="#FFE45E"/>
<path d="M130.927 55.5366C122.726 70.4883 126.643 88.4151 126.643 88.4151C126.643 88.4151 143.857 82.1004 152.059 67.1486C160.26 52.1969 156.343 34.2701 156.343 34.2701C156.343 34.2701 139.129 40.5849 130.927 55.5366Z" fill="#3F3D56"/>
<path d="M138.09 57.5259C138.645 74.5738 127.048 88.7866 127.048 88.7866C127.048 88.7866 114.551 75.3592 113.996 58.3112C113.442 41.2632 125.039 27.0505 125.039 27.0505C125.039 27.0505 137.536 40.478 138.09 57.5259Z" fill="#FFE45E"/>
<path d="M125.008 157.189C139.662 157.189 151.541 145.299 151.541 130.632C151.541 115.965 139.662 104.075 125.008 104.075C110.354 104.075 98.4749 115.965 98.4749 130.632C98.4749 145.299 110.354 157.189 125.008 157.189Z" fill="#F2F2F2"/>
<path d="M133.613 126.325C138.366 126.325 142.219 122.469 142.219 117.712C142.219 112.955 138.366 109.099 133.613 109.099C128.861 109.099 125.008 112.955 125.008 117.712C125.008 122.469 128.861 126.325 133.613 126.325Z" fill="#3F3D56"/>
<path d="M46.7629 188.382L45.4883 187.723C62.0407 155.694 53.1896 114.099 42.8503 84.8454C35.8296 65.1827 26.8748 46.2667 16.1179 28.376L17.3301 27.6091C28.1429 45.5908 37.1444 64.6031 44.2019 84.3659C54.6364 113.887 63.5499 155.897 46.7629 188.382Z" fill="#2F2E41"/>
<path d="M59.0356 27.8648L49.7314 78.8287L51.1418 79.0867L60.4459 28.1227L59.0356 27.8648Z" fill="#2F2E41"/>
<path d="M-2.8298 71.2866L-3.88013 72.2649L44.1662 123.944L45.2165 122.965L-2.8298 71.2866Z" fill="#2F2E41"/>
<path d="M83.5457 128.054L59.1753 161.797L60.3378 162.638L84.7082 128.895L83.5457 128.054Z" fill="#2F2E41"/>
<path d="M63.3362 14.3551C67.2967 14.3551 70.5073 11.1416 70.5073 7.17757C70.5073 3.21351 67.2967 0 63.3362 0C59.3757 0 56.165 3.21351 56.165 7.17757C56.165 11.1416 59.3757 14.3551 63.3362 14.3551Z" fill="#FFE45E"/>
<path d="M16.7241 76.8C20.6846 76.8 23.8952 73.5865 23.8952 69.6224C23.8952 65.6583 20.6846 62.4448 16.7241 62.4448C12.7636 62.4448 9.55298 65.6583 9.55298 69.6224C9.55298 73.5865 12.7636 76.8 16.7241 76.8Z" fill="#3F3D56"/>
<path d="M2.38181 104.793C6.34231 104.793 9.55293 101.579 9.55293 97.6149C9.55293 93.6509 6.34231 90.4374 2.38181 90.4374C-1.57869 90.4374 -4.78931 93.6509 -4.78931 97.6149C-4.78931 101.579 -1.57869 104.793 2.38181 104.793Z" fill="#FFE45E"/>
<path d="M92.0207 122.737C95.9812 122.737 99.1918 119.523 99.1918 115.559C99.1918 111.595 95.9812 108.381 92.0207 108.381C88.0602 108.381 84.8496 111.595 84.8496 115.559C84.8496 119.523 88.0602 122.737 92.0207 122.737Z" fill="#3F3D56"/>
<path d="M68.3562 130.632C72.3167 130.632 75.5273 127.418 75.5273 123.454C75.5273 119.49 72.3167 116.277 68.3562 116.277C64.3957 116.277 61.1851 119.49 61.1851 123.454C61.1851 127.418 64.3957 130.632 68.3562 130.632Z" fill="#3F3D56"/>
<path d="M84.8496 153.6C88.8101 153.6 92.0207 150.386 92.0207 146.422C92.0207 142.458 88.8101 139.245 84.8496 139.245C80.8891 139.245 77.6785 142.458 77.6785 146.422C77.6785 150.386 80.8891 153.6 84.8496 153.6Z" fill="#3F3D56"/>
<path d="M9.55295 22.9682C13.5135 22.9682 16.7241 19.7547 16.7241 15.7906C16.7241 11.8265 13.5135 8.61304 9.55295 8.61304C5.59245 8.61304 2.38184 11.8265 2.38184 15.7906C2.38184 19.7547 5.59245 22.9682 9.55295 22.9682Z" fill="#3F3D56"/>
</svg>
